<?xml version="1.0" encoding="UTF-8" standalone="no"?><svg xmlns="http://www.w3.org/2000/svg" xmlns:xlink="http://www.w3.org/1999/xlink" contentScriptType="application/ecmascript" contentStyleType="text/css" height="907px" preserveAspectRatio="none" style="width:2599px;height:907px;background:#FFFFFF;" version="1.1" viewBox="0 0 2599 907" width="2599px" zoomAndPan="magnify"><defs><filter height="300%" id="f1liavctkk0oul" width="300%" x="-1" y="-1"><feGaussianBlur result="blurOut" stdDeviation="2.0"/><feColorMatrix in="blurOut" result="blurOut2" type="matrix" values="0 0 0 0 0 0 0 0 0 0 0 0 0 0 0 0 0 0 .4 0"/><feOffset dx="4.0" dy="4.0" in="blurOut2" result="blurOut3"/><feBlend in="SourceGraphic" in2="blurOut3" mode="normal"/></filter></defs><g><!--MD5=[923f710a89f3b458ee8f605f2cdbb4a5]
cluster ChickenCommerceHost--><polygon fill="#FFFFFF" filter="url(#f1liavctkk0oul)" points="16,246,186,246,193,269.6094,2322,269.6094,2322,900,16,900,16,246" style="stroke:#000000;stroke-width:1.5;"/><line style="stroke:#000000;stroke-width:1.5;" x1="16" x2="193" y1="269.6094" y2="269.6094"/><text fill="#000000" font-family="sans-serif" font-size="14" font-weight="bold" lengthAdjust="spacing" textLength="164" x="20" y="262.5332">ChickenCommerceHost</text><!--MD5=[b81d475bff8382f6de843883a7fc380d]
cluster Modules--><polygon fill="#FFFFFF" filter="url(#f1liavctkk0oul)" points="40,379,107,379,114,402.6094,2298,402.6094,2298,876,40,876,40,379" style="stroke:#000000;stroke-width:1.5;"/><line style="stroke:#000000;stroke-width:1.5;" x1="40" x2="114" y1="402.6094" y2="402.6094"/><text fill="#000000" font-family="sans-serif" font-size="14" font-weight="bold" lengthAdjust="spacing" textLength="61" x="44" y="395.5332">Modules</text><!--MD5=[1b0f1d4bc34feaedb5789fed429cabc9]
cluster Account--><polygon fill="#FFFFFF" filter="url(#f1liavctkk0oul)" points="64,423,127,423,134,446.6094,1118,446.6094,1118,852,64,852,64,423" style="stroke:#000000;stroke-width:1.5;"/><line style="stroke:#000000;stroke-width:1.5;" x1="64" x2="134" y1="446.6094" y2="446.6094"/><text fill="#000000" font-family="sans-serif" font-size="14" font-weight="bold" lengthAdjust="spacing" textLength="57" x="68" y="439.5332">Account</text><!--MD5=[5ae9ebcd7a0a3fe73660702219259f6c]
cluster AccInfra--><polygon fill="#FFFFFF" filter="url(#f1liavctkk0oul)" points="727,600,790,600,797,623.6094,1051,623.6094,1051,700,727,700,727,600" style="stroke:#000000;stroke-width:1.5;"/><line style="stroke:#000000;stroke-width:1.5;" x1="727" x2="797" y1="623.6094" y2="623.6094"/><text fill="#000000" font-family="sans-serif" font-size="14" font-weight="bold" lengthAdjust="spacing" textLength="57" x="731" y="616.5332">AccInfra</text><!--MD5=[6e10d81563475886819136d08bcc999c]
cluster AccEndpoints--><polygon fill="#FFFFFF" filter="url(#f1liavctkk0oul)" points="684,467,786,467,793,490.6094,1094,490.6094,1094,567,684,567,684,467" style="stroke:#000000;stroke-width:1.5;"/><line style="stroke:#000000;stroke-width:1.5;" x1="684" x2="793" y1="490.6094" y2="490.6094"/><text fill="#000000" font-family="sans-serif" font-size="14" font-weight="bold" lengthAdjust="spacing" textLength="96" x="688" y="483.5332">AccEndpoints</text><!--MD5=[b24e64d3fd9bb0f24330de78dcbfceea]
cluster AccCore--><polygon fill="#FFFFFF" filter="url(#f1liavctkk0oul)" points="88,467,153,467,160,490.6094,660,490.6094,660,828,88,828,88,467" style="stroke:#000000;stroke-width:1.5;"/><line style="stroke:#000000;stroke-width:1.5;" x1="88" x2="160" y1="490.6094" y2="490.6094"/><text fill="#000000" font-family="sans-serif" font-size="14" font-weight="bold" lengthAdjust="spacing" textLength="59" x="92" y="483.5332">AccCore</text><!--MD5=[efb0108df68c95f86fb378679ab58bc2]
cluster Catalog--><polygon fill="#FFFFFF" filter="url(#f1liavctkk0oul)" points="1142,423,1201,423,1208,446.6094,2274,446.6094,2274,852,1142,852,1142,423" style="stroke:#000000;stroke-width:1.5;"/><line style="stroke:#000000;stroke-width:1.5;" x1="1142" x2="1208" y1="446.6094" y2="446.6094"/><text fill="#000000" font-family="sans-serif" font-size="14" font-weight="bold" lengthAdjust="spacing" textLength="53" x="1146" y="439.5332">Catalog</text><!--MD5=[abb54f61f809c143747317bc8625fab3]
cluster CatalogInfra--><polygon fill="#FFFFFF" filter="url(#f1liavctkk0oul)" points="1818,600,1909,600,1916,623.6094,2194,623.6094,2194,700,1818,700,1818,600" style="stroke:#000000;stroke-width:1.5;"/><line style="stroke:#000000;stroke-width:1.5;" x1="1818" x2="1916" y1="623.6094" y2="623.6094"/><text fill="#000000" font-family="sans-serif" font-size="14" font-weight="bold" lengthAdjust="spacing" textLength="85" x="1822" y="616.5332">CatalogInfra</text><!--MD5=[9dc4d805a77686ce7747ba89562d6809]
cluster CatalogEndpoints--><polygon fill="#FFFFFF" filter="url(#f1liavctkk0oul)" points="1762,467,1892,467,1899,490.6094,2250,490.6094,2250,567,1762,567,1762,467" style="stroke:#000000;stroke-width:1.5;"/><line style="stroke:#000000;stroke-width:1.5;" x1="1762" x2="1899" y1="490.6094" y2="490.6094"/><text fill="#000000" font-family="sans-serif" font-size="14" font-weight="bold" lengthAdjust="spacing" textLength="124" x="1766" y="483.5332">CatalogEndpoints</text><!--MD5=[9543729be9e0631994edf1c85b499436]
cluster CatalogCore--><polygon fill="#FFFFFF" filter="url(#f1liavctkk0oul)" points="1166,467,1259,467,1266,490.6094,1738,490.6094,1738,828,1166,828,1166,467" style="stroke:#000000;stroke-width:1.5;"/><line style="stroke:#000000;stroke-width:1.5;" x1="1166" x2="1266" y1="490.6094" y2="490.6094"/><text fill="#000000" font-family="sans-serif" font-size="14" font-weight="bold" lengthAdjust="spacing" textLength="87" x="1170" y="483.5332">CatalogCore</text><!--MD5=[caf7b33d2456239656b9b59659f5698e]
cluster Kafka--><polygon fill="#FFFFFF" filter="url(#f1liavctkk0oul)" points="2346,6,2391,6,2398,29.6094,2484,29.6094,2484,346,2346,346,2346,6" style="stroke:#000000;stroke-width:1.5;"/><line style="stroke:#000000;stroke-width:1.5;" x1="2346" x2="2398" y1="29.6094" y2="29.6094"/><text fill="#000000" font-family="sans-serif" font-size="14" font-weight="bold" lengthAdjust="spacing" textLength="39" x="2350" y="22.5332">Kafka</text><!--MD5=[27a444fffe1391022728d8b723c73823]
entity AuthMiddleware--><rect fill="#FEFECE" filter="url(#f1liavctkk0oul)" height="47.6094" style="stroke:#A80036;stroke-width:1.5;" width="140" x="1264" y="282"/><rect fill="#FEFECE" height="10" style="stroke:#A80036;stroke-width:1.5;" width="15" x="1384" y="287"/><rect fill="#FEFECE" height="2" style="stroke:#A80036;stroke-width:1.5;" width="4" x="1382" y="289"/><rect fill="#FEFECE" height="2" style="stroke:#A80036;stroke-width:1.5;" width="4" x="1382" y="293"/><text fill="#000000" font-family="sans-serif" font-size="14" lengthAdjust="spacing" textLength="100" x="1279" y="316.5332">AuthMiddleware</text><!--MD5=[1ace5dbabbd0edb0a4ea61adffb7e437]
entity AccRepo--><rect fill="#FEFECE" filter="url(#f1liavctkk0oul)" height="47.6094" style="stroke:#A80036;stroke-width:1.5;" width="97" x="937.5" y="636"/><rect fill="#FEFECE" height="10" style="stroke:#A80036;stroke-width:1.5;" width="15" x="1014.5" y="641"/><rect fill="#FEFECE" height="2" style="stroke:#A80036;stroke-width:1.5;" width="4" x="1012.5" y="643"/><rect fill="#FEFECE" height="2" style="stroke:#A80036;stroke-width:1.5;" width="4" x="1012.5" y="647"/><text fill="#000000" font-family="sans-serif" font-size="14" lengthAdjust="spacing" textLength="57" x="952.5" y="670.5332">AccRepo</text><!--MD5=[91a84f5e9f7cd3b26c07eeabe6860ed4]
entity AccEventBusClient--><rect fill="#FEFECE" filter="url(#f1liavctkk0oul)" height="47.6094" style="stroke:#A80036;stroke-width:1.5;" width="159" x="743.5" y="636"/><rect fill="#FEFECE" height="10" style="stroke:#A80036;stroke-width:1.5;" width="15" x="882.5" y="641"/><rect fill="#FEFECE" height="2" style="stroke:#A80036;stroke-width:1.5;" width="4" x="880.5" y="643"/><rect fill="#FEFECE" height="2" style="stroke:#A80036;stroke-width:1.5;" width="4" x="880.5" y="647"/><text fill="#000000" font-family="sans-serif" font-size="14" lengthAdjust="spacing" textLength="119" x="758.5" y="670.5332">AccEventBusClient</text><!--MD5=[3bb9285aa430fefc414bcc2454c40d46]
entity AccAPIs--><rect fill="#FFFF00" filter="url(#f1liavctkk0oul)" height="47.6094" style="stroke:#A80036;stroke-width:1.5;" width="91" x="700.5" y="503"/><rect fill="#FFFF00" height="10" style="stroke:#A80036;stroke-width:1.5;" width="15" x="771.5" y="508"/><rect fill="#FFFF00" height="2" style="stroke:#A80036;stroke-width:1.5;" width="4" x="769.5" y="510"/><rect fill="#FFFF00" height="2" style="stroke:#A80036;stroke-width:1.5;" width="4" x="769.5" y="514"/><text fill="#000000" font-family="sans-serif" font-size="14" lengthAdjust="spacing" textLength="51" x="715.5" y="537.5332">AccAPIs</text><!--MD5=[161b425267099ec2d6e4ed8d18d6e87e]
entity AccGRPCs--><rect fill="#FFFF00" filter="url(#f1liavctkk0oul)" height="47.6094" style="stroke:#A80036;stroke-width:1.5;" width="110" x="827" y="503"/><rect fill="#FFFF00" height="10" style="stroke:#A80036;stroke-width:1.5;" width="15" x="917" y="508"/><rect fill="#FFFF00" height="2" style="stroke:#A80036;stroke-width:1.5;" width="4" x="915" y="510"/><rect fill="#FFFF00" height="2" style="stroke:#A80036;stroke-width:1.5;" width="4" x="915" y="514"/><text fill="#000000" font-family="sans-serif" font-size="14" lengthAdjust="spacing" textLength="70" x="842" y="537.5332">AccGRPCs</text><!--MD5=[75242a3a3b3291452895bed420087851]
entity AccEvents--><rect fill="#FFFF00" filter="url(#f1liavctkk0oul)" height="47.6094" style="stroke:#A80036;stroke-width:1.5;" width="106" x="972" y="503"/><rect fill="#FFFF00" height="10" style="stroke:#A80036;stroke-width:1.5;" width="15" x="1058" y="508"/><rect fill="#FFFF00" height="2" style="stroke:#A80036;stroke-width:1.5;" width="4" x="1056" y="510"/><rect fill="#FFFF00" height="2" style="stroke:#A80036;stroke-width:1.5;" width="4" x="1056" y="514"/><text fill="#000000" font-family="sans-serif" font-size="14" lengthAdjust="spacing" textLength="66" x="987" y="537.5332">AccEvents</text><!--MD5=[aa6dcc7bb4d385079fd82e5b4d4ccf5f]
entity IAccService--><rect fill="#FFFF00" filter="url(#f1liavctkk0oul)" height="47.6094" style="stroke:#A80036;stroke-width:1.5;" width="113" x="491.5" y="636"/><rect fill="#FFFF00" height="10" style="stroke:#A80036;stroke-width:1.5;" width="15" x="584.5" y="641"/><rect fill="#FFFF00" height="2" style="stroke:#A80036;stroke-width:1.5;" width="4" x="582.5" y="643"/><rect fill="#FFFF00" height="2" style="stroke:#A80036;stroke-width:1.5;" width="4" x="582.5" y="647"/><text fill="#000000" font-family="sans-serif" font-size="14" lengthAdjust="spacing" textLength="73" x="506.5" y="670.5332">IAccService</text><!--MD5=[9b853276631597bce4194662a9135eb5]
entity AccService--><rect fill="#FEFECE" filter="url(#f1liavctkk0oul)" height="47.6094" style="stroke:#A80036;stroke-width:1.5;" width="110" x="493" y="503"/><rect fill="#FEFECE" height="10" style="stroke:#A80036;stroke-width:1.5;" width="15" x="583" y="508"/><rect fill="#FEFECE" height="2" style="stroke:#A80036;stroke-width:1.5;" width="4" x="581" y="510"/><rect fill="#FEFECE" height="2" style="stroke:#A80036;stroke-width:1.5;" width="4" x="581" y="514"/><text fill="#000000" font-family="sans-serif" font-size="14" lengthAdjust="spacing" textLength="70" x="508" y="537.5332">AccService</text><!--MD5=[88a324be705b646245946231169e146c]
entity IAccEventBusClient--><rect fill="#FEFECE" filter="url(#f1liavctkk0oul)" height="47.6094" style="stroke:#A80036;stroke-width:1.5;" width="162" x="482" y="764"/><rect fill="#FEFECE" height="10" style="stroke:#A80036;stroke-width:1.5;" width="15" x="624" y="769"/><rect fill="#FEFECE" height="2" style="stroke:#A80036;stroke-width:1.5;" width="4" x="622" y="771"/><rect fill="#FEFECE" height="2" style="stroke:#A80036;stroke-width:1.5;" width="4" x="622" y="775"/><text fill="#000000" font-family="sans-serif" font-size="14" lengthAdjust="spacing" textLength="122" x="497" y="798.5332">IAccEventBusClient</text><!--MD5=[76e425ee06053d6cbacd6f5c168eafee]
entity Acc Biz Model--><rect fill="#FEFECE" filter="url(#f1liavctkk0oul)" height="47.6094" style="stroke:#A80036;stroke-width:1.5;" width="127" x="104.5" y="764"/><rect fill="#FEFECE" height="10" style="stroke:#A80036;stroke-width:1.5;" width="15" x="211.5" y="769"/><rect fill="#FEFECE" height="2" style="stroke:#A80036;stroke-width:1.5;" width="4" x="209.5" y="771"/><rect fill="#FEFECE" height="2" style="stroke:#A80036;stroke-width:1.5;" width="4" x="209.5" y="775"/><text fill="#000000" font-family="sans-serif" font-size="14" lengthAdjust="spacing" textLength="87" x="119.5" y="798.5332">Acc Biz Model</text><!--MD5=[61c14f852aaf09eddb874193ce53e508]
entity IAccRepo--><rect fill="#FEFECE" filter="url(#f1liavctkk0oul)" height="47.6094" style="stroke:#A80036;stroke-width:1.5;" width="100" x="347" y="764"/><rect fill="#FEFECE" height="10" style="stroke:#A80036;stroke-width:1.5;" width="15" x="427" y="769"/><rect fill="#FEFECE" height="2" style="stroke:#A80036;stroke-width:1.5;" width="4" x="425" y="771"/><rect fill="#FEFECE" height="2" style="stroke:#A80036;stroke-width:1.5;" width="4" x="425" y="775"/><text fill="#000000" font-family="sans-serif" font-size="14" lengthAdjust="spacing" textLength="60" x="362" y="798.5332">IAccRepo</text><!--MD5=[97aac0a1bd7c3f4c0e6554f7f08581c5]
entity CatalogRepo--><rect fill="#FEFECE" filter="url(#f1liavctkk0oul)" height="47.6094" style="stroke:#A80036;stroke-width:1.5;" width="123" x="1834.5" y="636"/><rect fill="#FEFECE" height="10" style="stroke:#A80036;stroke-width:1.5;" width="15" x="1937.5" y="641"/><rect fill="#FEFECE" height="2" style="stroke:#A80036;stroke-width:1.5;" width="4" x="1935.5" y="643"/><rect fill="#FEFECE" height="2" style="stroke:#A80036;stroke-width:1.5;" width="4" x="1935.5" y="647"/><text fill="#000000" font-family="sans-serif" font-size="14" lengthAdjust="spacing" textLength="83" x="1849.5" y="670.5332">CatalogRepo</text><!--MD5=[04ad52c0e8ca935c03d89bc5c2365383]
entity CatalogEventBusClient--><rect fill="#FEFECE" filter="url(#f1liavctkk0oul)" height="47.6094" style="stroke:#A80036;stroke-width:1.5;" width="185" x="1992.5" y="636"/><rect fill="#FEFECE" height="10" style="stroke:#A80036;stroke-width:1.5;" width="15" x="2157.5" y="641"/><rect fill="#FEFECE" height="2" style="stroke:#A80036;stroke-width:1.5;" width="4" x="2155.5" y="643"/><rect fill="#FEFECE" height="2" style="stroke:#A80036;stroke-width:1.5;" width="4" x="2155.5" y="647"/><text fill="#000000" font-family="sans-serif" font-size="14" lengthAdjust="spacing" textLength="145" x="2007.5" y="670.5332">CatalogEventBusClient</text><!--MD5=[4f7fed4cacef44b9dfde1fa88c1cb32c]
entity CatalogAPIs--><rect fill="#FFFF00" filter="url(#f1liavctkk0oul)" height="47.6094" style="stroke:#A80036;stroke-width:1.5;" width="117" x="1949.5" y="503"/><rect fill="#FFFF00" height="10" style="stroke:#A80036;stroke-width:1.5;" width="15" x="2046.5" y="508"/><rect fill="#FFFF00" height="2" style="stroke:#A80036;stroke-width:1.5;" width="4" x="2044.5" y="510"/><rect fill="#FFFF00" height="2" style="stroke:#A80036;stroke-width:1.5;" width="4" x="2044.5" y="514"/><text fill="#000000" font-family="sans-serif" font-size="14" lengthAdjust="spacing" textLength="77" x="1964.5" y="537.5332">CatalogAPIs</text><!--MD5=[06b072e80bae1a099450e727f3d29a38]
entity CatalogGRPCs--><rect fill="#FFFF00" filter="url(#f1liavctkk0oul)" height="47.6094" style="stroke:#A80036;stroke-width:1.5;" width="136" x="1778" y="503"/><rect fill="#FFFF00" height="10" style="stroke:#A80036;stroke-width:1.5;" width="15" x="1894" y="508"/><rect fill="#FFFF00" height="2" style="stroke:#A80036;stroke-width:1.5;" width="4" x="1892" y="510"/><rect fill="#FFFF00" height="2" style="stroke:#A80036;stroke-width:1.5;" width="4" x="1892" y="514"/><text fill="#000000" font-family="sans-serif" font-size="14" lengthAdjust="spacing" textLength="96" x="1793" y="537.5332">CatalogGRPCs</text><!--MD5=[98c039e122b183fa7d6dae4a2642f97e]
entity CatalogEvents--><rect fill="#FFFF00" filter="url(#f1liavctkk0oul)" height="47.6094" style="stroke:#A80036;stroke-width:1.5;" width="132" x="2102" y="503"/><rect fill="#FFFF00" height="10" style="stroke:#A80036;stroke-width:1.5;" width="15" x="2214" y="508"/><rect fill="#FFFF00" height="2" style="stroke:#A80036;stroke-width:1.5;" width="4" x="2212" y="510"/><rect fill="#FFFF00" height="2" style="stroke:#A80036;stroke-width:1.5;" width="4" x="2212" y="514"/><text fill="#000000" font-family="sans-serif" font-size="14" lengthAdjust="spacing" textLength="92" x="2117" y="537.5332">CatalogEvents</text><!--MD5=[323ed86cbd505562d697fa6d600ab4d3]
entity ICatalogService--><rect fill="#FFFF00" filter="url(#f1liavctkk0oul)" height="47.6094" style="stroke:#A80036;stroke-width:1.5;" width="139" x="1556.5" y="636"/><rect fill="#FFFF00" height="10" style="stroke:#A80036;stroke-width:1.5;" width="15" x="1675.5" y="641"/><rect fill="#FFFF00" height="2" style="stroke:#A80036;stroke-width:1.5;" width="4" x="1673.5" y="643"/><rect fill="#FFFF00" height="2" style="stroke:#A80036;stroke-width:1.5;" width="4" x="1673.5" y="647"/><text fill="#000000" font-family="sans-serif" font-size="14" lengthAdjust="spacing" textLength="99" x="1571.5" y="670.5332">ICatalogService</text><!--MD5=[8770e429356369015f617b1b9a294f7b]
entity CatalogService--><rect fill="#FEFECE" filter="url(#f1liavctkk0oul)" height="47.6094" style="stroke:#A80036;stroke-width:1.5;" width="136" x="1558" y="503"/><rect fill="#FEFECE" height="10" style="stroke:#A80036;stroke-width:1.5;" width="15" x="1674" y="508"/><rect fill="#FEFECE" height="2" style="stroke:#A80036;stroke-width:1.5;" width="4" x="1672" y="510"/><rect fill="#FEFECE" height="2" style="stroke:#A80036;stroke-width:1.5;" width="4" x="1672" y="514"/><text fill="#000000" font-family="sans-serif" font-size="14" lengthAdjust="spacing" textLength="96" x="1573" y="537.5332">CatalogService</text><!--MD5=[119a2027f0a8d5e5a52960d8266ccc5c]
entity ICatalogEventBusClient--><rect fill="#FEFECE" filter="url(#f1liavctkk0oul)" height="47.6094" style="stroke:#A80036;stroke-width:1.5;" width="188" x="1534" y="764"/><rect fill="#FEFECE" height="10" style="stroke:#A80036;stroke-width:1.5;" width="15" x="1702" y="769"/><rect fill="#FEFECE" height="2" style="stroke:#A80036;stroke-width:1.5;" width="4" x="1700" y="771"/><rect fill="#FEFECE" height="2" style="stroke:#A80036;stroke-width:1.5;" width="4" x="1700" y="775"/><text fill="#000000" font-family="sans-serif" font-size="14" lengthAdjust="spacing" textLength="148" x="1549" y="798.5332">ICatalogEventBusClient</text><!--MD5=[b9a340246b51869005990fc9a2e6a132]
entity Catalog Biz Model--><rect fill="#FEFECE" filter="url(#f1liavctkk0oul)" height="47.6094" style="stroke:#A80036;stroke-width:1.5;" width="153" x="1182.5" y="764"/><rect fill="#FEFECE" height="10" style="stroke:#A80036;stroke-width:1.5;" width="15" x="1315.5" y="769"/><rect fill="#FEFECE" height="2" style="stroke:#A80036;stroke-width:1.5;" width="4" x="1313.5" y="771"/><rect fill="#FEFECE" height="2" style="stroke:#A80036;stroke-width:1.5;" width="4" x="1313.5" y="775"/><text fill="#000000" font-family="sans-serif" font-size="14" lengthAdjust="spacing" textLength="113" x="1197.5" y="798.5332">Catalog Biz Model</text><!--MD5=[ac2d13eb9d32614837b3e91110d20fb4]
entity ICatalogRepo--><rect fill="#FEFECE" filter="url(#f1liavctkk0oul)" height="47.6094" style="stroke:#A80036;stroke-width:1.5;" width="126" x="1373" y="764"/><rect fill="#FEFECE" height="10" style="stroke:#A80036;stroke-width:1.5;" width="15" x="1479" y="769"/><rect fill="#FEFECE" height="2" style="stroke:#A80036;stroke-width:1.5;" width="4" x="1477" y="771"/><rect fill="#FEFECE" height="2" style="stroke:#A80036;stroke-width:1.5;" width="4" x="1477" y="775"/><text fill="#000000" font-family="sans-serif" font-size="14" lengthAdjust="spacing" textLength="86" x="1388" y="798.5332">ICatalogRepo</text><!--MD5=[034cc5895b2ef7c10223406b60669bb6]
entity Producer--><rect fill="#FEFECE" filter="url(#f1liavctkk0oul)" height="47.6094" style="stroke:#A80036;stroke-width:1.5;" width="98" x="2370" y="42"/><rect fill="#FEFECE" height="10" style="stroke:#A80036;stroke-width:1.5;" width="15" x="2448" y="47"/><rect fill="#FEFECE" height="2" style="stroke:#A80036;stroke-width:1.5;" width="4" x="2446" y="49"/><rect fill="#FEFECE" height="2" style="stroke:#A80036;stroke-width:1.5;" width="4" x="2446" y="53"/><text fill="#000000" font-family="sans-serif" font-size="14" lengthAdjust="spacing" textLength="58" x="2385" y="76.5332">Producer</text><!--MD5=[4d65782647d64e21a92b473b2db819be]
entity Consumer--><rect fill="#FEFECE" filter="url(#f1liavctkk0oul)" height="47.6094" style="stroke:#A80036;stroke-width:1.5;" width="105" x="2362.5" y="282"/><rect fill="#FEFECE" height="10" style="stroke:#A80036;stroke-width:1.5;" width="15" x="2447.5" y="287"/><rect fill="#FEFECE" height="2" style="stroke:#A80036;stroke-width:1.5;" width="4" x="2445.5" y="289"/><rect fill="#FEFECE" height="2" style="stroke:#A80036;stroke-width:1.5;" width="4" x="2445.5" y="293"/><text fill="#000000" font-family="sans-serif" font-size="14" lengthAdjust="spacing" textLength="65" x="2377.5" y="316.5332">Consumer</text><!--MD5=[b1435b213846e3ddcd1e6c1cd6b83b9a]
entity Server--><rect fill="#FEFECE" filter="url(#f1liavctkk0oul)" height="47.6094" style="stroke:#A80036;stroke-width:1.5;" width="82" x="2377" y="151"/><rect fill="#FEFECE" height="10" style="stroke:#A80036;stroke-width:1.5;" width="15" x="2439" y="156"/><rect fill="#FEFECE" height="2" style="stroke:#A80036;stroke-width:1.5;" width="4" x="2437" y="158"/><rect fill="#FEFECE" height="2" style="stroke:#A80036;stroke-width:1.5;" width="4" x="2437" y="162"/><text fill="#000000" font-family="sans-serif" font-size="14" lengthAdjust="spacing" textLength="42" x="2392" y="185.5332">Server</text><!--MD5=[0ba5ee7700168656dc1b457c6fe9fdac]
entity Client--><rect fill="#FEFECE" filter="url(#f1liavctkk0oul)" height="47.6094" style="stroke:#A80036;stroke-width:1.5;" width="76" x="1296" y="151"/><rect fill="#FEFECE" height="10" style="stroke:#A80036;stroke-width:1.5;" width="15" x="1352" y="156"/><rect fill="#FEFECE" height="2" style="stroke:#A80036;stroke-width:1.5;" width="4" x="1350" y="158"/><rect fill="#FEFECE" height="2" style="stroke:#A80036;stroke-width:1.5;" width="4" x="1350" y="162"/><text fill="#000000" font-family="sans-serif" font-size="14" lengthAdjust="spacing" textLength="36" x="1311" y="185.5332">Client</text><!--MD5=[ba72416187da2a396e219ea5b5d73a26]
entity MongoDB--><path d="M2457,513.5 C2457,503.5 2498,503.5 2498,503.5 C2498,503.5 2539,503.5 2539,513.5 L2539,540.1094 C2539,550.1094 2498,550.1094 2498,550.1094 C2498,550.1094 2457,550.1094 2457,540.1094 L2457,513.5 " fill="#FEFECE" filter="url(#f1liavctkk0oul)" style="stroke:#000000;stroke-width:1.5;"/><path d="M2457,513.5 C2457,523.5 2498,523.5 2498,523.5 C2498,523.5 2539,523.5 2539,513.5 " fill="none" style="stroke:#000000;stroke-width:1.5;"/><text fill="#000000" font-family="sans-serif" font-size="14" lengthAdjust="spacing" textLength="62" x="2467" y="542.0332">MongoDB</text><!--MD5=[4baa3ae5d84cdb6e6a17c7939a50dfc8]
link AccService to IAccService--><path d="M548,551.12 C548,568.87 548,593.91 548,615.4 " fill="none" id="AccService-to-IAccService" style="stroke:#A80036;stroke-width:1.0;stroke-dasharray:7.0,7.0;"/><polygon fill="none" points="555,615.67,548,635.67,541,615.67,555,615.67" style="stroke:#A80036;stroke-width:1.0;"/><!--MD5=[eeb94cdfdb5326bd7f7ca9c27a5fbf17]
link AccAPIs to IAccService--><path d="M711.06,551.12 C676.39,574.06 623.34,609.15 587.24,633.04 " fill="none" id="AccAPIs-to-IAccService" style="stroke:#A80036;stroke-width:1.0;"/><polygon fill="#A80036" points="582.93,635.89,592.6438,634.2644,587.1012,633.133,588.2326,627.5904,582.93,635.89" style="stroke:#A80036;stroke-width:1.0;"/><!--MD5=[e100a68978c33b0b4656099b59a5b19f]
link AccGRPCs to IAccService--><path d="M851.77,551.03 C839.13,559.68 823.93,568.89 809,575 C774.55,589.09 762.76,581.67 727,592 C686.59,603.68 642.31,620.22 607.9,633.94 " fill="none" id="AccGRPCs-to-IAccService" style="stroke:#A80036;stroke-width:1.0;"/><polygon fill="#A80036" points="602.9,635.95,612.7419,636.3214,607.5424,634.093,609.7707,628.8936,602.9,635.95" style="stroke:#A80036;stroke-width:1.0;"/><!--MD5=[8d13e1de6ef7e9d91c507274860b758e]
link AccEvents to IAccService--><path d="M997.41,551.04 C984.93,560.15 969.52,569.69 954,575 C858.28,607.76 825.81,570.27 727,592 C684.04,601.45 637.58,619.07 602.76,633.87 " fill="none" id="AccEvents-to-IAccService" style="stroke:#A80036;stroke-width:1.0;"/><polygon fill="#A80036" points="598.14,635.85,607.9881,635.9702,602.7335,633.8752,604.8285,628.6206,598.14,635.85" style="stroke:#A80036;stroke-width:1.0;"/><!--MD5=[80ff4e436df79845ac1d903cca4c5ef8]
link IAccService to IAccRepo--><path d="M491.32,663.71 C416.87,668.58 292.24,681.76 264,716 C237.72,747.85 294.34,767.41 341.66,777.73 " fill="none" id="IAccService-to-IAccRepo" style="stroke:#A80036;stroke-width:1.0;"/><polygon fill="#A80036" points="346.79,778.82,338.8233,773.0294,341.9002,777.7763,337.1533,780.8531,346.79,778.82" style="stroke:#A80036;stroke-width:1.0;"/><text fill="#000000" font-family="sans-serif" font-size="13" lengthAdjust="spacing" textLength="110" x="265" y="730.4951">1. Fetch Biz Model</text><!--MD5=[80ff4e436df79845ac1d903cca4c5ef8]
link IAccService to IAccRepo--><path d="M504.01,684.16 C488.73,693.15 471.95,704.14 458,716 C442.85,728.88 428.25,745.67 417.14,759.68 " fill="none" id="IAccService-to-IAccRepo-1" style="stroke:#A80036;stroke-width:1.0;"/><polygon fill="#A80036" points="413.8,763.94,422.5049,759.333,416.8885,760.0079,416.2136,754.3915,413.8,763.94" style="stroke:#A80036;stroke-width:1.0;"/><text fill="#000000" font-family="sans-serif" font-size="13" lengthAdjust="spacing" textLength="87" x="459" y="730.4951">3. Persist Data</text><!--MD5=[483f5d9b1e6200fdea041900e5b453da]
link IAccService to Acc Biz Model--><path d="M491.13,660.4 C394.34,660.73 203.92,667.68 162,716 C152.04,727.48 153.02,744.31 156.74,758.69 " fill="none" id="IAccService-to-Acc Biz Model" style="stroke:#A80036;stroke-width:1.0;"/><polygon fill="#A80036" points="158.22,763.87,159.6013,754.1185,156.8502,759.0613,151.9073,756.3102,158.22,763.87" style="stroke:#A80036;stroke-width:1.0;"/><text fill="#000000" font-family="sans-serif" font-size="13" lengthAdjust="spacing" textLength="86" x="163" y="730.4951">2. Process Biz</text><!--MD5=[65b46d367fc010ee1836fe49660132fb]
link IAccService to IAccEventBusClient--><path d="M550.75,684.11 C553.24,705.03 556.92,735.91 559.59,758.38 " fill="none" id="IAccService-to-IAccEventBusClient" style="stroke:#A80036;stroke-width:1.0;"/><polygon fill="#A80036" points="560.22,763.61,563.1363,754.2028,559.6333,758.6445,555.1916,755.1415,560.22,763.61" style="stroke:#A80036;stroke-width:1.0;"/><text fill="#000000" font-family="sans-serif" font-size="13" lengthAdjust="spacing" textLength="94" x="558" y="730.4951">4. Publish Event</text><!--MD5=[2d7b832fbcc234ae105936fbfc8bcd7a]
link AccRepo to IAccRepo--><path d="M959.84,684.2 C948.38,693.1 934.29,702.45 920,708 C735.61,779.62 667.27,722.01 466.96,764.13 " fill="none" id="AccRepo-to-IAccRepo" style="stroke:#A80036;stroke-width:1.0;stroke-dasharray:7.0,7.0;"/><polygon fill="none" points="468.2,771.03,447.16,768.52,465.17,757.36,468.2,771.03" style="stroke:#A80036;stroke-width:1.0;"/><!--MD5=[77244f463a87f248bd41ed90ee516ee8]
link AccEventBusClient to IAccEventBusClient--><path d="M775.31,684.11 C734.3,703.99 674.72,732.86 629.11,754.96 " fill="none" id="AccEventBusClient-to-IAccEventBusClient" style="stroke:#A80036;stroke-width:1.0;stroke-dasharray:7.0,7.0;"/><polygon fill="none" points="631.88,761.4,610.83,763.82,625.77,748.8,631.88,761.4" style="stroke:#A80036;stroke-width:1.0;"/><!--MD5=[09e39d3bdea07b5185101230e2575058]
link CatalogService to ICatalogService--><path d="M1626,551.12 C1626,568.87 1626,593.91 1626,615.4 " fill="none" id="CatalogService-to-ICatalogService" style="stroke:#A80036;stroke-width:1.0;stroke-dasharray:7.0,7.0;"/><polygon fill="none" points="1633,615.67,1626,635.67,1619,615.67,1633,615.67" style="stroke:#A80036;stroke-width:1.0;"/><!--MD5=[801dfbf200b984e8022c5ee069b37c99]
link CatalogAPIs to ICatalogService--><path d="M1976.49,551.17 C1963.08,559.95 1946.9,569.22 1931,575 C1883.27,592.35 1867.3,579.8 1818,592 C1773.72,602.95 1725.23,619.92 1688.06,634.03 " fill="none" id="CatalogAPIs-to-ICatalogService" style="stroke:#A80036;stroke-width:1.0;"/><polygon fill="#A80036" points="1683.12,635.92,1692.955,636.4427,1687.7904,634.1347,1690.0985,628.9701,1683.12,635.92" style="stroke:#A80036;stroke-width:1.0;"/><!--MD5=[12d0f140293c535395eaee9d7874da8e]
link CatalogGRPCs to ICatalogService--><path d="M1807.17,551.12 C1768.49,574.15 1709.24,609.44 1669.11,633.33 " fill="none" id="CatalogGRPCs-to-ICatalogService" style="stroke:#A80036;stroke-width:1.0;"/><polygon fill="#A80036" points="1664.81,635.89,1674.59,634.7278,1669.1075,633.3343,1670.501,627.8518,1664.81,635.89" style="stroke:#A80036;stroke-width:1.0;"/><!--MD5=[8ee704e0df05d11351cd983a41ea76ad]
link CatalogEvents to ICatalogService--><path d="M2134.8,551.1 C2119.95,560.22 2101.79,569.75 2084,575 C1970.38,608.53 1934.11,568.49 1818,592 C1771.97,601.32 1721.93,619.05 1684.48,633.92 " fill="none" id="CatalogEvents-to-ICatalogService" style="stroke:#A80036;stroke-width:1.0;"/><polygon fill="#A80036" points="1679.52,635.91,1689.3619,636.2814,1684.1624,634.053,1686.3907,628.8536,1679.52,635.91" style="stroke:#A80036;stroke-width:1.0;"/><!--MD5=[3490669fe8f4711f9c003d96f770e4fc]
link ICatalogService to ICatalogRepo--><path d="M1556.23,664.62 C1481.07,670.14 1368.65,683.7 1342,716 C1326.99,734.19 1344.58,750.4 1368.44,762.73 " fill="none" id="ICatalogService-to-ICatalogRepo" style="stroke:#A80036;stroke-width:1.0;"/><polygon fill="#A80036" points="1372.97,764.98,1366.6896,757.3934,1368.4922,762.7553,1363.1302,764.5579,1372.97,764.98" style="stroke:#A80036;stroke-width:1.0;"/><text fill="#000000" font-family="sans-serif" font-size="13" lengthAdjust="spacing" textLength="110" x="1343" y="730.4951">1. Fetch Biz Model</text><!--MD5=[3490669fe8f4711f9c003d96f770e4fc]
link ICatalogService to ICatalogRepo--><path d="M1582.77,684.23 C1566,693.64 1546.83,704.89 1530,716 C1508.9,729.93 1486.25,746.97 1468.47,760.86 " fill="none" id="ICatalogService-to-ICatalogRepo-1" style="stroke:#A80036;stroke-width:1.0;"/><polygon fill="#A80036" points="1464.53,763.96,1474.0785,761.5464,1468.4621,760.8715,1469.137,755.2551,1464.53,763.96" style="stroke:#A80036;stroke-width:1.0;"/><text fill="#000000" font-family="sans-serif" font-size="13" lengthAdjust="spacing" textLength="87" x="1531" y="730.4951">3. Persist Data</text><!--MD5=[6ddd22b15992144cc987c4db8ee80b9e]
link ICatalogService to Catalog Biz Model--><path d="M1556.12,660.51 C1456.43,661.48 1280.98,669.9 1241,716 C1230.74,727.82 1234.51,744.69 1241.19,759.02 " fill="none" id="ICatalogService-to-Catalog Biz Model" style="stroke:#A80036;stroke-width:1.0;"/><polygon fill="#A80036" points="1243.55,763.77,1243.1154,753.9307,1241.3197,759.295,1235.9554,757.4993,1243.55,763.77" style="stroke:#A80036;stroke-width:1.0;"/><text fill="#000000" font-family="sans-serif" font-size="13" lengthAdjust="spacing" textLength="86" x="1242" y="730.4951">2. Process Biz</text><!--MD5=[0cc533f94caac983c185c64f94840218]
link ICatalogService to ICatalogEventBusClient--><path d="M1626.37,684.11 C1626.7,705.03 1627.19,735.91 1627.55,758.38 " fill="none" id="ICatalogService-to-ICatalogEventBusClient" style="stroke:#A80036;stroke-width:1.0;"/><polygon fill="#A80036" points="1627.63,763.61,1631.4751,754.5428,1627.5443,758.6107,1623.4763,754.6799,1627.63,763.61" style="stroke:#A80036;stroke-width:1.0;"/><text fill="#000000" font-family="sans-serif" font-size="13" lengthAdjust="spacing" textLength="94" x="1629" y="730.4951">4. Publish Event</text><!--MD5=[3418c16f76ed2b7632d4eaadd8f0f4d0]
link CatalogRepo to ICatalogRepo--><path d="M1853.05,684.13 C1820.68,700.56 1774.7,721.8 1732,734 C1644.54,759 1614.5,745.79 1518.81,763.96 " fill="none" id="CatalogRepo-to-ICatalogRepo" style="stroke:#A80036;stroke-width:1.0;stroke-dasharray:7.0,7.0;"/><polygon fill="none" points="1520.1,770.84,1499.11,767.96,1517.32,757.12,1520.1,770.84" style="stroke:#A80036;stroke-width:1.0;"/><!--MD5=[87df5f007243cbe70cddd58132d22f14]
link CatalogEventBusClient to ICatalogEventBusClient--><path d="M2036.17,684.1 C2017.34,692.41 1995.44,701.36 1975,708 C1898.51,732.82 1810.11,752.83 1741.67,766.49 " fill="none" id="CatalogEventBusClient-to-ICatalogEventBusClient" style="stroke:#A80036;stroke-width:1.0;stroke-dasharray:7.0,7.0;"/><polygon fill="none" points="1742.99,773.37,1722.02,770.35,1740.3,759.63,1742.99,773.37" style="stroke:#A80036;stroke-width:1.0;"/><!--MD5=[5b3b1433e68c5a51bd9aacd1c1170898]
link Client to AuthMiddleware--><path d="M1334,199.06 C1334,220.76 1334,253.3 1334,276.59 " fill="none" id="Client-to-AuthMiddleware" style="stroke:#A80036;stroke-width:1.0;"/><polygon fill="#A80036" points="1334,281.7,1338,272.7,1334,276.7,1330,272.7,1334,281.7" style="stroke:#A80036;stroke-width:1.0;"/><!--MD5=[743ed9adc8f09c45a90fb3a6334c7f4b]
link AuthMiddleware to AccAPIs--><path d="M1263.62,306.97 C1137.29,308.29 878.74,317.65 809,371 C768.87,401.7 754.19,462.24 748.9,497.9 " fill="none" id="AuthMiddleware-to-AccAPIs" style="stroke:#A80036;stroke-width:1.0;"/><polygon fill="#A80036" points="748.19,502.97,753.3855,494.603,748.8751,498.0172,745.4609,493.5068,748.19,502.97" style="stroke:#A80036;stroke-width:1.0;"/><!--MD5=[192cf9acdbf4e0dce1bad42796c1c502]
link AuthMiddleware to AccGRPCs--><path d="M1263.66,311.09 C1167.5,317.97 1001.48,334.8 954,371 C913.07,402.21 894.55,462.29 886.86,497.79 " fill="none" id="AuthMiddleware-to-AccGRPCs" style="stroke:#A80036;stroke-width:1.0;"/><polygon fill="#A80036" points="885.81,502.84,891.5559,494.841,886.8263,497.9444,883.7229,493.2148,885.81,502.84" style="stroke:#A80036;stroke-width:1.0;"/><!--MD5=[9a6b8aa0098b77cd3aad8ea8fa33d7db]
link AuthMiddleware to AccEvents--><path d="M1263.82,325.59 C1232.25,335.94 1195.53,350.87 1166,371 C1114.22,406.3 1068.28,464.28 1043.77,498.43 " fill="none" id="AuthMiddleware-to-AccEvents" style="stroke:#A80036;stroke-width:1.0;"/><polygon fill="#A80036" points="1040.6,502.88,1049.0794,497.8701,1043.5008,498.8075,1042.5634,493.2288,1040.6,502.88" style="stroke:#A80036;stroke-width:1.0;"/><!--MD5=[2e7f60e9eda777d41e9168fe208de194]
link AuthMiddleware to CatalogAPIs--><path d="M1404.26,306.28 C1543.31,306.15 1847.38,312.77 1931,371 C1973.89,400.87 1994.05,461.71 2002.56,497.64 " fill="none" id="AuthMiddleware-to-CatalogAPIs" style="stroke:#A80036;stroke-width:1.0;"/><polygon fill="#A80036" points="2003.73,502.76,2005.6225,493.0947,2002.6151,497.8859,1997.8239,494.8785,2003.73,502.76" style="stroke:#A80036;stroke-width:1.0;"/><!--MD5=[a5dc6d030e279718ea096e78953bea4e]
link AuthMiddleware to CatalogGRPCs--><path d="M1404.01,315.07 C1512.12,327.97 1710.2,353.59 1738,371 C1786.54,401.41 1819.12,462.48 1834.92,498.21 " fill="none" id="AuthMiddleware-to-CatalogGRPCs" style="stroke:#A80036;stroke-width:1.0;"/><polygon fill="#A80036" points="1836.95,502.86,1837.0185,493.0114,1834.9512,498.2769,1829.6856,496.2095,1836.95,502.86" style="stroke:#A80036;stroke-width:1.0;"/><!--MD5=[22957294c369bb5421cce525c0ca310e]
link AuthMiddleware to CatalogEvents--><path d="M1404.12,309.22 C1579.64,315.3 2027.9,334.27 2084,371 C2128.67,400.24 2151.46,461.59 2161.45,497.72 " fill="none" id="AuthMiddleware-to-CatalogEvents" style="stroke:#A80036;stroke-width:1.0;"/><polygon fill="#A80036" points="2162.84,502.86,2164.3627,493.1296,2161.5401,498.0319,2156.6378,495.2094,2162.84,502.86" style="stroke:#A80036;stroke-width:1.0;"/><!--MD5=[1f8271d0689ffc2e597d613a937fdde5]
link Producer to Server--><path d="M2418.78,90.22 C2418.63,106.48 2418.43,128.32 2418.27,145.62 " fill="none" id="Producer-to-Server" style="stroke:#A80036;stroke-width:1.0;"/><polygon fill="#A80036" points="2418.22,150.83,2422.297,141.8646,2418.2629,145.8302,2414.2973,141.796,2418.22,150.83" style="stroke:#A80036;stroke-width:1.0;"/><!--MD5=[2ae1d77ce868e217d4da6dc199c4db90]
link Server to Consumer--><path d="M2417.46,199.06 C2416.96,220.76 2416.2,253.3 2415.66,276.59 " fill="none" id="Server-to-Consumer" style="stroke:#A80036;stroke-width:1.0;"/><polygon fill="#A80036" points="2415.54,281.7,2419.7446,272.7938,2415.6543,276.7013,2411.7467,272.6109,2415.54,281.7" style="stroke:#A80036;stroke-width:1.0;"/><!--MD5=[a576c05456eb269ce048d8b18bcee493]
link Producer to AccEventBusClient--><path d="M2439.87,90.13 C2452.93,106.05 2468.78,128.34 2477,151 C2507.79,235.88 2536.34,279.72 2485,354 C2472.84,371.59 2457.75,359.09 2440,371 C2337.12,440.04 2363.29,524.84 2250,575 C2182.43,604.92 990.4,569.55 920,592 C899.59,598.51 879.66,610.89 863.23,623.26 " fill="none" id="Producer-to-AccEventBusClient" style="stroke:#A80036;stroke-width:1.0;stroke-dasharray:7.0,7.0;"/><polygon fill="none" points="867.47,628.83,847.49,635.89,858.7,617.91,867.47,628.83" style="stroke:#A80036;stroke-width:1.0;"/><!--MD5=[fc97193e020a3138a9b508b7dbf3c012]
link Consumer to AccEvents--><path d="M2377.98,330.22 C2361.48,339.36 2341.42,348.87 2322,354 C2241.98,375.13 2218.73,360.66 2136,363 C2122.53,363.38 1178.3,365.5 1166,371 C1113.46,394.49 1072.02,448.14 1048.01,485.7 " fill="none" id="Consumer-to-AccEvents" style="stroke:#A80036;stroke-width:1.0;stroke-dasharray:7.0,7.0;"/><polygon fill="none" points="1053.91,489.47,1037.51,502.89,1041.96,482.17,1053.91,489.47" style="stroke:#A80036;stroke-width:1.0;"/><!--MD5=[e4f313e55f7d5a619902ad2885938c4a]
link Producer to CatalogEventBusClient--><path d="M2468.11,75.64 C2519.26,87.79 2592,115.38 2592,174 C2592,174 2592,174 2592,528 C2592,608.89 2347.04,640.62 2197.66,652.45 " fill="none" id="Producer-to-CatalogEventBusClient" style="stroke:#A80036;stroke-width:1.0;stroke-dasharray:7.0,7.0;"/><polygon fill="none" points="2198.17,659.43,2177.7,653.96,2197.11,645.47,2198.17,659.43" style="stroke:#A80036;stroke-width:1.0;"/><!--MD5=[83b6428c8f457e57e42c8bc8b926fdda]
link Consumer to CatalogEvents--><path d="M2389.03,330.02 C2346.14,368.06 2260.13,444.31 2208.97,489.67 " fill="none" id="Consumer-to-CatalogEvents" style="stroke:#A80036;stroke-width:1.0;stroke-dasharray:7.0,7.0;"/><polygon fill="none" points="2213.6,494.93,2193.99,502.96,2204.31,484.45,2213.6,494.93" style="stroke:#A80036;stroke-width:1.0;"/><!--MD5=[f8264999df7bbaba224c495b8e0ba163]
link MongoDB to AccRepo--><path d="M2476.67,550.73 C2463.43,563.14 2445.3,577.31 2426,584 C2392.93,595.46 1200.43,585.69 1166,592 C1127.2,599.11 1085.83,613.96 1052.55,627.87 " fill="none" id="MongoDB-to-AccRepo" style="stroke:#A80036;stroke-width:1.0;stroke-dasharray:7.0,7.0;"/><polygon fill="none" points="1055.1,634.39,1033.96,635.89,1049.55,621.54,1055.1,634.39" style="stroke:#A80036;stroke-width:1.0;"/><!--MD5=[a8dd1085d9ae4405e6cef066d224dfcf]
link MongoDB to CatalogRepo--><path d="M2492.74,550.73 C2488.67,562.81 2481.68,576.65 2470,584 C2446.72,598.65 2000.74,582.32 1975,592 C1958.13,598.35 1942.36,610 1929.41,621.82 " fill="none" id="MongoDB-to-CatalogRepo" style="stroke:#A80036;stroke-width:1.0;stroke-dasharray:7.0,7.0;"/><polygon fill="none" points="1934.26,626.87,1915.14,635.99,1924.4,616.93,1934.26,626.87" style="stroke:#A80036;stroke-width:1.0;"/><!--MD5=[792bbaf89436e84b9b9f6f7a795ea308]
@startuml ChickenCommerce
package ChickenCommerceHost {

  [AuthMiddleware]

  package Modules {

    package Account {

      package AccInfra {
        [AccRepo]
        [AccEventBusClient]
      }

      package AccEndpoints {
        [AccAPIs] #Yellow
        [AccGRPCs] #Yellow
        [AccEvents] #Yellow
      }

      package AccCore {
        [IAccService] #Yellow
        [AccService]
        [IAccEventBusClient]
        [Acc Biz Model]
        [IAccRepo]
      }

      [AccService] ..|> [IAccService]

      [AccAPIs] - -> [IAccService]
      [AccGRPCs] - -> [IAccService]
      [AccEvents] - -> [IAccService]

      [IAccService] - -> [IAccRepo] : 1. Fetch Biz Model
      [IAccService] - -> [Acc Biz Model] : 2. Process Biz
      [IAccService] - -> [IAccRepo] : 3. Persist Data
      [IAccService] - -> [IAccEventBusClient] : 4. Publish Event

      [AccRepo] ..|> [IAccRepo]
      [AccEventBusClient] ..|> [IAccEventBusClient]
    }

    package Catalog {

      package CatalogInfra {
        [CatalogRepo]
        [CatalogEventBusClient]
      }

      package CatalogEndpoints {
        [CatalogAPIs] #Yellow
        [CatalogGRPCs] #Yellow
        [CatalogEvents] #Yellow
      }

      package CatalogCore {
        [ICatalogService] #Yellow
        [CatalogService]
        [ICatalogEventBusClient]
        [Catalog Biz Model]
        [ICatalogRepo]
      }

      [CatalogService] ..|> [ICatalogService]

      [CatalogAPIs] - -> [ICatalogService]
      [CatalogGRPCs] - -> [ICatalogService]
      [CatalogEvents] - -> [ICatalogService]

      [ICatalogService] - -> [ICatalogRepo] : 1. Fetch Biz Model
      [ICatalogService] - -> [Catalog Biz Model] : 2. Process Biz
      [ICatalogService] - -> [ICatalogRepo] : 3. Persist Data
      [ICatalogService] - -> [ICatalogEventBusClient] : 4. Publish Event

      [CatalogRepo] ..|> [ICatalogRepo]
      [CatalogEventBusClient] ..|> [ICatalogEventBusClient]
    }

  }
}

[Client]
Client - -> [AuthMiddleware]

[AuthMiddleware] - -> [AccAPIs]
[AuthMiddleware] - -> [AccGRPCs]
[AuthMiddleware] - -> [AccEvents]
[AuthMiddleware] - -> [CatalogAPIs]
[AuthMiddleware] - -> [CatalogGRPCs]
[AuthMiddleware] - -> [CatalogEvents]

package Kafka {
  [Producer]
  [Consumer]
  [Server]

  [Producer] - -> [Server]
  [Server] - -> [Consumer]

  [Producer] ..|> [AccEventBusClient]
  [Consumer] ..|> [AccEvents]
  
  [Producer] ..|> [CatalogEventBusClient]
  [Consumer] ..|> [CatalogEvents]
}

database MongoDB
MongoDB ..|> [AccRepo]
MongoDB ..|> [CatalogRepo]

@enduml

PlantUML version 1.2021.7(Sun May 23 19:40:07 ICT 2021)
(GPL source distribution)
Java Runtime: Java(TM) SE Runtime Environment
JVM: Java HotSpot(TM) 64-Bit Server VM
Default Encoding: Cp1252
Language: en
Country: US
--></g></svg>