<?xml version="1.0" encoding="UTF-8" standalone="no"?><svg xmlns="http://www.w3.org/2000/svg" xmlns:xlink="http://www.w3.org/1999/xlink" contentScriptType="application/ecmascript" contentStyleType="text/css" height="941px" preserveAspectRatio="none" style="width:3872px;height:941px;background:#FFFFFF;" version="1.1" viewBox="0 0 3872 941" width="3872px" zoomAndPan="magnify"><defs><filter height="300%" id="f1s612yo0lrvdx" width="300%" x="-1" y="-1"><feGaussianBlur result="blurOut" stdDeviation="2.0"/><feColorMatrix in="blurOut" result="blurOut2" type="matrix" values="0 0 0 0 0 0 0 0 0 0 0 0 0 0 0 0 0 0 .4 0"/><feOffset dx="4.0" dy="4.0" in="blurOut2" result="blurOut3"/><feBlend in="SourceGraphic" in2="blurOut3" mode="normal"/></filter></defs><g><!--MD5=[923f710a89f3b458ee8f605f2cdbb4a5]
cluster ChickenCommerceHost--><polygon fill="#FFFFFF" filter="url(#f1s612yo0lrvdx)" points="16,246,186,246,193,269.6094,3595,269.6094,3595,934,16,934,16,246" style="stroke:#000000;stroke-width:1.5;"/><line style="stroke:#000000;stroke-width:1.5;" x1="16" x2="193" y1="269.6094" y2="269.6094"/><text fill="#000000" font-family="sans-serif" font-size="14" font-weight="bold" lengthAdjust="spacing" textLength="164" x="20" y="262.5332">ChickenCommerceHost</text><!--MD5=[b81d475bff8382f6de843883a7fc380d]
cluster Modules--><polygon fill="#FFFFFF" filter="url(#f1s612yo0lrvdx)" points="40,396,107,396,114,419.6094,3571,419.6094,3571,910,40,910,40,396" style="stroke:#000000;stroke-width:1.5;"/><line style="stroke:#000000;stroke-width:1.5;" x1="40" x2="114" y1="419.6094" y2="419.6094"/><text fill="#000000" font-family="sans-serif" font-size="14" font-weight="bold" lengthAdjust="spacing" textLength="61" x="44" y="412.5332">Modules</text><!--MD5=[4523f918a499262345e8d765b0fe948b]
cluster Order--><polygon fill="#FFFFFF" filter="url(#f1s612yo0lrvdx)" points="64,440,111,440,118,463.6094,1883,463.6094,1883,886,64,886,64,440" style="stroke:#000000;stroke-width:1.5;"/><line style="stroke:#000000;stroke-width:1.5;" x1="64" x2="118" y1="463.6094" y2="463.6094"/><text fill="#000000" font-family="sans-serif" font-size="14" font-weight="bold" lengthAdjust="spacing" textLength="41" x="68" y="456.5332">Order</text><!--MD5=[c7f138f12a0fef7743e08f362e36696c]
cluster OrderInfra--><polygon fill="#FFFFFF" filter="url(#f1s612yo0lrvdx)" points="1507,634,1586,634,1593,657.6094,1859,657.6094,1859,734,1507,734,1507,634" style="stroke:#000000;stroke-width:1.5;"/><line style="stroke:#000000;stroke-width:1.5;" x1="1507" x2="1593" y1="657.6094" y2="657.6094"/><text fill="#000000" font-family="sans-serif" font-size="14" font-weight="bold" lengthAdjust="spacing" textLength="73" x="1511" y="650.5332">OrderInfra</text><!--MD5=[2c47f9ea3ffafb951b49e9090d8c5d8f]
cluster OrderEndpoints--><polygon fill="#FFFFFF" filter="url(#f1s612yo0lrvdx)" points="1507,484,1625,484,1632,507.6094,1800,507.6094,1800,584,1507,584,1507,484" style="stroke:#000000;stroke-width:1.5;"/><line style="stroke:#000000;stroke-width:1.5;" x1="1507" x2="1632" y1="507.6094" y2="507.6094"/><text fill="#000000" font-family="sans-serif" font-size="14" font-weight="bold" lengthAdjust="spacing" textLength="112" x="1511" y="500.5332">OrderEndpoints</text><!--MD5=[b04e4e33d92e4d77a71ab7358942f877]
cluster OrderCore--><polygon fill="#FFFFFF" filter="url(#f1s612yo0lrvdx)" points="88,484,169,484,176,507.6094,1483,507.6094,1483,862,88,862,88,484" style="stroke:#000000;stroke-width:1.5;"/><line style="stroke:#000000;stroke-width:1.5;" x1="88" x2="176" y1="507.6094" y2="507.6094"/><text fill="#000000" font-family="sans-serif" font-size="14" font-weight="bold" lengthAdjust="spacing" textLength="75" x="92" y="500.5332">OrderCore</text><!--MD5=[efb0108df68c95f86fb378679ab58bc2]
cluster Catalog--><polygon fill="#FFFFFF" filter="url(#f1s612yo0lrvdx)" points="1907,440,1966,440,1973,463.6094,3547,463.6094,3547,886,1907,886,1907,440" style="stroke:#000000;stroke-width:1.5;"/><line style="stroke:#000000;stroke-width:1.5;" x1="1907" x2="1973" y1="463.6094" y2="463.6094"/><text fill="#000000" font-family="sans-serif" font-size="14" font-weight="bold" lengthAdjust="spacing" textLength="53" x="1911" y="456.5332">Catalog</text><!--MD5=[abb54f61f809c143747317bc8625fab3]
cluster CatalogInfra--><polygon fill="#FFFFFF" filter="url(#f1s612yo0lrvdx)" points="3147,634,3238,634,3245,657.6094,3523,657.6094,3523,734,3147,734,3147,634" style="stroke:#000000;stroke-width:1.5;"/><line style="stroke:#000000;stroke-width:1.5;" x1="3147" x2="3245" y1="657.6094" y2="657.6094"/><text fill="#000000" font-family="sans-serif" font-size="14" font-weight="bold" lengthAdjust="spacing" textLength="85" x="3151" y="650.5332">CatalogInfra</text><!--MD5=[9dc4d805a77686ce7747ba89562d6809]
cluster CatalogEndpoints--><polygon fill="#FFFFFF" filter="url(#f1s612yo0lrvdx)" points="1931,484,2061,484,2068,507.6094,2095,507.6094,2095,584,1931,584,1931,484" style="stroke:#000000;stroke-width:1.5;"/><line style="stroke:#000000;stroke-width:1.5;" x1="1931" x2="2068" y1="507.6094" y2="507.6094"/><text fill="#000000" font-family="sans-serif" font-size="14" font-weight="bold" lengthAdjust="spacing" textLength="124" x="1935" y="500.5332">CatalogEndpoints</text><!--MD5=[9543729be9e0631994edf1c85b499436]
cluster CatalogCore--><polygon fill="#FFFFFF" filter="url(#f1s612yo0lrvdx)" points="2119,484,2212,484,2219,507.6094,3123,507.6094,3123,862,2119,862,2119,484" style="stroke:#000000;stroke-width:1.5;"/><line style="stroke:#000000;stroke-width:1.5;" x1="2119" x2="2219" y1="507.6094" y2="507.6094"/><text fill="#000000" font-family="sans-serif" font-size="14" font-weight="bold" lengthAdjust="spacing" textLength="87" x="2123" y="500.5332">CatalogCore</text><!--MD5=[caf7b33d2456239656b9b59659f5698e]
cluster Kafka--><polygon fill="#FFFFFF" filter="url(#f1s612yo0lrvdx)" points="3619,6,3664,6,3671,29.6094,3757,29.6094,3757,346,3619,346,3619,6" style="stroke:#000000;stroke-width:1.5;"/><line style="stroke:#000000;stroke-width:1.5;" x1="3619" x2="3671" y1="29.6094" y2="29.6094"/><text fill="#000000" font-family="sans-serif" font-size="14" font-weight="bold" lengthAdjust="spacing" textLength="39" x="3623" y="22.5332">Kafka</text><!--MD5=[27a444fffe1391022728d8b723c73823]
entity AuthMiddleware--><rect fill="#FEFECE" filter="url(#f1s612yo0lrvdx)" height="47.6094" style="stroke:#A80036;stroke-width:1.5;" width="140" x="1506" y="282"/><rect fill="#FEFECE" height="10" style="stroke:#A80036;stroke-width:1.5;" width="15" x="1626" y="287"/><rect fill="#FEFECE" height="2" style="stroke:#A80036;stroke-width:1.5;" width="4" x="1624" y="289"/><rect fill="#FEFECE" height="2" style="stroke:#A80036;stroke-width:1.5;" width="4" x="1624" y="293"/><text fill="#000000" font-family="sans-serif" font-size="14" lengthAdjust="spacing" textLength="100" x="1521" y="316.5332">AuthMiddleware</text><!--MD5=[cdbc9c454661b732c9f052f6b90c5441]
entity OrderRepo--><rect fill="#FEFECE" filter="url(#f1s612yo0lrvdx)" height="47.6094" style="stroke:#A80036;stroke-width:1.5;" width="111" x="1523.5" y="670"/><rect fill="#FEFECE" height="10" style="stroke:#A80036;stroke-width:1.5;" width="15" x="1614.5" y="675"/><rect fill="#FEFECE" height="2" style="stroke:#A80036;stroke-width:1.5;" width="4" x="1612.5" y="677"/><rect fill="#FEFECE" height="2" style="stroke:#A80036;stroke-width:1.5;" width="4" x="1612.5" y="681"/><text fill="#000000" font-family="sans-serif" font-size="14" lengthAdjust="spacing" textLength="71" x="1538.5" y="704.5332">OrderRepo</text><!--MD5=[c405f2012a5492d837da26ca2acb280e]
entity OrderEventBusClient--><rect fill="#FEFECE" filter="url(#f1s612yo0lrvdx)" height="47.6094" style="stroke:#A80036;stroke-width:1.5;" width="173" x="1669.5" y="670"/><rect fill="#FEFECE" height="10" style="stroke:#A80036;stroke-width:1.5;" width="15" x="1822.5" y="675"/><rect fill="#FEFECE" height="2" style="stroke:#A80036;stroke-width:1.5;" width="4" x="1820.5" y="677"/><rect fill="#FEFECE" height="2" style="stroke:#A80036;stroke-width:1.5;" width="4" x="1820.5" y="681"/><text fill="#000000" font-family="sans-serif" font-size="14" lengthAdjust="spacing" textLength="133" x="1684.5" y="704.5332">OrderEventBusClient</text><!--MD5=[871e1cae263001d20152bde91feae972]
entity OrderAPIs--><rect fill="#FFFF00" filter="url(#f1s612yo0lrvdx)" height="47.6094" style="stroke:#A80036;stroke-width:1.5;" width="105" x="1523.5" y="520"/><rect fill="#FFFF00" height="10" style="stroke:#A80036;stroke-width:1.5;" width="15" x="1608.5" y="525"/><rect fill="#FFFF00" height="2" style="stroke:#A80036;stroke-width:1.5;" width="4" x="1606.5" y="527"/><rect fill="#FFFF00" height="2" style="stroke:#A80036;stroke-width:1.5;" width="4" x="1606.5" y="531"/><text fill="#000000" font-family="sans-serif" font-size="14" lengthAdjust="spacing" textLength="65" x="1538.5" y="554.5332">OrderAPIs</text><!--MD5=[0bd74e357e617e81c71f80b168b00a0e]
entity OrderEvents--><rect fill="#FFFF00" filter="url(#f1s612yo0lrvdx)" height="47.6094" style="stroke:#A80036;stroke-width:1.5;" width="120" x="1664" y="520"/><rect fill="#FFFF00" height="10" style="stroke:#A80036;stroke-width:1.5;" width="15" x="1764" y="525"/><rect fill="#FFFF00" height="2" style="stroke:#A80036;stroke-width:1.5;" width="4" x="1762" y="527"/><rect fill="#FFFF00" height="2" style="stroke:#A80036;stroke-width:1.5;" width="4" x="1762" y="531"/><text fill="#000000" font-family="sans-serif" font-size="14" lengthAdjust="spacing" textLength="80" x="1679" y="554.5332">OrderEvents</text><!--MD5=[26b1e5d4f026d635f5104efe9db3a843]
entity IOrderService--><rect fill="#FFFF00" filter="url(#f1s612yo0lrvdx)" height="47.6094" style="stroke:#A80036;stroke-width:1.5;" width="127" x="693.5" y="670"/><rect fill="#FFFF00" height="10" style="stroke:#A80036;stroke-width:1.5;" width="15" x="800.5" y="675"/><rect fill="#FFFF00" height="2" style="stroke:#A80036;stroke-width:1.5;" width="4" x="798.5" y="677"/><rect fill="#FFFF00" height="2" style="stroke:#A80036;stroke-width:1.5;" width="4" x="798.5" y="681"/><text fill="#000000" font-family="sans-serif" font-size="14" lengthAdjust="spacing" textLength="87" x="708.5" y="704.5332">IOrderService</text><!--MD5=[9b0ee41058c506f496d31c8c2a337121]
entity OrderService--><rect fill="#FEFECE" filter="url(#f1s612yo0lrvdx)" height="47.6094" style="stroke:#A80036;stroke-width:1.5;" width="124" x="695" y="520"/><rect fill="#FEFECE" height="10" style="stroke:#A80036;stroke-width:1.5;" width="15" x="799" y="525"/><rect fill="#FEFECE" height="2" style="stroke:#A80036;stroke-width:1.5;" width="4" x="797" y="527"/><rect fill="#FEFECE" height="2" style="stroke:#A80036;stroke-width:1.5;" width="4" x="797" y="531"/><text fill="#000000" font-family="sans-serif" font-size="14" lengthAdjust="spacing" textLength="84" x="710" y="554.5332">OrderService</text><!--MD5=[a26fa793c33ca57a07de975e4fb464e3]
entity IOrderEventBusClient--><rect fill="#FEFECE" filter="url(#f1s612yo0lrvdx)" height="47.6094" style="stroke:#A80036;stroke-width:1.5;" width="176" x="1008" y="798"/><rect fill="#FEFECE" height="10" style="stroke:#A80036;stroke-width:1.5;" width="15" x="1164" y="803"/><rect fill="#FEFECE" height="2" style="stroke:#A80036;stroke-width:1.5;" width="4" x="1162" y="805"/><rect fill="#FEFECE" height="2" style="stroke:#A80036;stroke-width:1.5;" width="4" x="1162" y="809"/><text fill="#000000" font-family="sans-serif" font-size="14" lengthAdjust="spacing" textLength="136" x="1023" y="832.5332">IOrderEventBusClient</text><!--MD5=[92335977a1e1ab41853059448040be6b]
entity Order Biz Model--><rect fill="#FEFECE" filter="url(#f1s612yo0lrvdx)" height="47.6094" style="stroke:#A80036;stroke-width:1.5;" width="141" x="104.5" y="798"/><rect fill="#FEFECE" height="10" style="stroke:#A80036;stroke-width:1.5;" width="15" x="225.5" y="803"/><rect fill="#FEFECE" height="2" style="stroke:#A80036;stroke-width:1.5;" width="4" x="223.5" y="805"/><rect fill="#FEFECE" height="2" style="stroke:#A80036;stroke-width:1.5;" width="4" x="223.5" y="809"/><text fill="#000000" font-family="sans-serif" font-size="14" lengthAdjust="spacing" textLength="101" x="119.5" y="832.5332">Order Biz Model</text><!--MD5=[6d9c10f990bb924395cc702986f3d40d]
entity IOrderRepo--><rect fill="#FEFECE" filter="url(#f1s612yo0lrvdx)" height="47.6094" style="stroke:#A80036;stroke-width:1.5;" width="114" x="526" y="798"/><rect fill="#FEFECE" height="10" style="stroke:#A80036;stroke-width:1.5;" width="15" x="620" y="803"/><rect fill="#FEFECE" height="2" style="stroke:#A80036;stroke-width:1.5;" width="4" x="618" y="805"/><rect fill="#FEFECE" height="2" style="stroke:#A80036;stroke-width:1.5;" width="4" x="618" y="809"/><text fill="#000000" font-family="sans-serif" font-size="14" lengthAdjust="spacing" textLength="74" x="541" y="832.5332">IOrderRepo</text><!--MD5=[97aac0a1bd7c3f4c0e6554f7f08581c5]
entity CatalogRepo--><rect fill="#FEFECE" filter="url(#f1s612yo0lrvdx)" height="47.6094" style="stroke:#A80036;stroke-width:1.5;" width="123" x="3163.5" y="670"/><rect fill="#FEFECE" height="10" style="stroke:#A80036;stroke-width:1.5;" width="15" x="3266.5" y="675"/><rect fill="#FEFECE" height="2" style="stroke:#A80036;stroke-width:1.5;" width="4" x="3264.5" y="677"/><rect fill="#FEFECE" height="2" style="stroke:#A80036;stroke-width:1.5;" width="4" x="3264.5" y="681"/><text fill="#000000" font-family="sans-serif" font-size="14" lengthAdjust="spacing" textLength="83" x="3178.5" y="704.5332">CatalogRepo</text><!--MD5=[04ad52c0e8ca935c03d89bc5c2365383]
entity CatalogEventBusClient--><rect fill="#FEFECE" filter="url(#f1s612yo0lrvdx)" height="47.6094" style="stroke:#A80036;stroke-width:1.5;" width="185" x="3321.5" y="670"/><rect fill="#FEFECE" height="10" style="stroke:#A80036;stroke-width:1.5;" width="15" x="3486.5" y="675"/><rect fill="#FEFECE" height="2" style="stroke:#A80036;stroke-width:1.5;" width="4" x="3484.5" y="677"/><rect fill="#FEFECE" height="2" style="stroke:#A80036;stroke-width:1.5;" width="4" x="3484.5" y="681"/><text fill="#000000" font-family="sans-serif" font-size="14" lengthAdjust="spacing" textLength="145" x="3336.5" y="704.5332">CatalogEventBusClient</text><!--MD5=[98c039e122b183fa7d6dae4a2642f97e]
entity CatalogEvents--><rect fill="#FFFF00" filter="url(#f1s612yo0lrvdx)" height="47.6094" style="stroke:#A80036;stroke-width:1.5;" width="132" x="1947" y="520"/><rect fill="#FFFF00" height="10" style="stroke:#A80036;stroke-width:1.5;" width="15" x="2059" y="525"/><rect fill="#FFFF00" height="2" style="stroke:#A80036;stroke-width:1.5;" width="4" x="2057" y="527"/><rect fill="#FFFF00" height="2" style="stroke:#A80036;stroke-width:1.5;" width="4" x="2057" y="531"/><text fill="#000000" font-family="sans-serif" font-size="14" lengthAdjust="spacing" textLength="92" x="1962" y="554.5332">CatalogEvents</text><!--MD5=[323ed86cbd505562d697fa6d600ab4d3]
entity ICatalogService--><rect fill="#FFFF00" filter="url(#f1s612yo0lrvdx)" height="47.6094" style="stroke:#A80036;stroke-width:1.5;" width="139" x="2325.5" y="670"/><rect fill="#FFFF00" height="10" style="stroke:#A80036;stroke-width:1.5;" width="15" x="2444.5" y="675"/><rect fill="#FFFF00" height="2" style="stroke:#A80036;stroke-width:1.5;" width="4" x="2442.5" y="677"/><rect fill="#FFFF00" height="2" style="stroke:#A80036;stroke-width:1.5;" width="4" x="2442.5" y="681"/><text fill="#000000" font-family="sans-serif" font-size="14" lengthAdjust="spacing" textLength="99" x="2340.5" y="704.5332">ICatalogService</text><!--MD5=[8770e429356369015f617b1b9a294f7b]
entity CatalogService--><rect fill="#FEFECE" filter="url(#f1s612yo0lrvdx)" height="47.6094" style="stroke:#A80036;stroke-width:1.5;" width="136" x="2327" y="520"/><rect fill="#FEFECE" height="10" style="stroke:#A80036;stroke-width:1.5;" width="15" x="2443" y="525"/><rect fill="#FEFECE" height="2" style="stroke:#A80036;stroke-width:1.5;" width="4" x="2441" y="527"/><rect fill="#FEFECE" height="2" style="stroke:#A80036;stroke-width:1.5;" width="4" x="2441" y="531"/><text fill="#000000" font-family="sans-serif" font-size="14" lengthAdjust="spacing" textLength="96" x="2342" y="554.5332">CatalogService</text><!--MD5=[119a2027f0a8d5e5a52960d8266ccc5c]
entity ICatalogEventBusClient--><rect fill="#FEFECE" filter="url(#f1s612yo0lrvdx)" height="47.6094" style="stroke:#A80036;stroke-width:1.5;" width="188" x="2821" y="798"/><rect fill="#FEFECE" height="10" style="stroke:#A80036;stroke-width:1.5;" width="15" x="2989" y="803"/><rect fill="#FEFECE" height="2" style="stroke:#A80036;stroke-width:1.5;" width="4" x="2987" y="805"/><rect fill="#FEFECE" height="2" style="stroke:#A80036;stroke-width:1.5;" width="4" x="2987" y="809"/><text fill="#000000" font-family="sans-serif" font-size="14" lengthAdjust="spacing" textLength="148" x="2836" y="832.5332">ICatalogEventBusClient</text><!--MD5=[b9a340246b51869005990fc9a2e6a132]
entity Catalog Biz Model--><rect fill="#FEFECE" filter="url(#f1s612yo0lrvdx)" height="47.6094" style="stroke:#A80036;stroke-width:1.5;" width="153" x="2135.5" y="798"/><rect fill="#FEFECE" height="10" style="stroke:#A80036;stroke-width:1.5;" width="15" x="2268.5" y="803"/><rect fill="#FEFECE" height="2" style="stroke:#A80036;stroke-width:1.5;" width="4" x="2266.5" y="805"/><rect fill="#FEFECE" height="2" style="stroke:#A80036;stroke-width:1.5;" width="4" x="2266.5" y="809"/><text fill="#000000" font-family="sans-serif" font-size="14" lengthAdjust="spacing" textLength="113" x="2150.5" y="832.5332">Catalog Biz Model</text><!--MD5=[ac2d13eb9d32614837b3e91110d20fb4]
entity ICatalogRepo--><rect fill="#FEFECE" filter="url(#f1s612yo0lrvdx)" height="47.6094" style="stroke:#A80036;stroke-width:1.5;" width="126" x="2547" y="798"/><rect fill="#FEFECE" height="10" style="stroke:#A80036;stroke-width:1.5;" width="15" x="2653" y="803"/><rect fill="#FEFECE" height="2" style="stroke:#A80036;stroke-width:1.5;" width="4" x="2651" y="805"/><rect fill="#FEFECE" height="2" style="stroke:#A80036;stroke-width:1.5;" width="4" x="2651" y="809"/><text fill="#000000" font-family="sans-serif" font-size="14" lengthAdjust="spacing" textLength="86" x="2562" y="832.5332">ICatalogRepo</text><!--MD5=[034cc5895b2ef7c10223406b60669bb6]
entity Producer--><rect fill="#FEFECE" filter="url(#f1s612yo0lrvdx)" height="47.6094" style="stroke:#A80036;stroke-width:1.5;" width="98" x="3643" y="42"/><rect fill="#FEFECE" height="10" style="stroke:#A80036;stroke-width:1.5;" width="15" x="3721" y="47"/><rect fill="#FEFECE" height="2" style="stroke:#A80036;stroke-width:1.5;" width="4" x="3719" y="49"/><rect fill="#FEFECE" height="2" style="stroke:#A80036;stroke-width:1.5;" width="4" x="3719" y="53"/><text fill="#000000" font-family="sans-serif" font-size="14" lengthAdjust="spacing" textLength="58" x="3658" y="76.5332">Producer</text><!--MD5=[4d65782647d64e21a92b473b2db819be]
entity Consumer--><rect fill="#FEFECE" filter="url(#f1s612yo0lrvdx)" height="47.6094" style="stroke:#A80036;stroke-width:1.5;" width="105" x="3635.5" y="282"/><rect fill="#FEFECE" height="10" style="stroke:#A80036;stroke-width:1.5;" width="15" x="3720.5" y="287"/><rect fill="#FEFECE" height="2" style="stroke:#A80036;stroke-width:1.5;" width="4" x="3718.5" y="289"/><rect fill="#FEFECE" height="2" style="stroke:#A80036;stroke-width:1.5;" width="4" x="3718.5" y="293"/><text fill="#000000" font-family="sans-serif" font-size="14" lengthAdjust="spacing" textLength="65" x="3650.5" y="316.5332">Consumer</text><!--MD5=[b1435b213846e3ddcd1e6c1cd6b83b9a]
entity Server--><rect fill="#FEFECE" filter="url(#f1s612yo0lrvdx)" height="47.6094" style="stroke:#A80036;stroke-width:1.5;" width="82" x="3650" y="151"/><rect fill="#FEFECE" height="10" style="stroke:#A80036;stroke-width:1.5;" width="15" x="3712" y="156"/><rect fill="#FEFECE" height="2" style="stroke:#A80036;stroke-width:1.5;" width="4" x="3710" y="158"/><rect fill="#FEFECE" height="2" style="stroke:#A80036;stroke-width:1.5;" width="4" x="3710" y="162"/><text fill="#000000" font-family="sans-serif" font-size="14" lengthAdjust="spacing" textLength="42" x="3665" y="185.5332">Server</text><!--MD5=[0ba5ee7700168656dc1b457c6fe9fdac]
entity Client--><rect fill="#FEFECE" filter="url(#f1s612yo0lrvdx)" height="47.6094" style="stroke:#A80036;stroke-width:1.5;" width="76" x="1538" y="151"/><rect fill="#FEFECE" height="10" style="stroke:#A80036;stroke-width:1.5;" width="15" x="1594" y="156"/><rect fill="#FEFECE" height="2" style="stroke:#A80036;stroke-width:1.5;" width="4" x="1592" y="158"/><rect fill="#FEFECE" height="2" style="stroke:#A80036;stroke-width:1.5;" width="4" x="1592" y="162"/><text fill="#000000" font-family="sans-serif" font-size="14" lengthAdjust="spacing" textLength="36" x="1553" y="185.5332">Client</text><!--MD5=[a51e2b5c0a9b0053a0ad9982c0620b9b]
link OrderService to IOrderService--><path d="M757,568.12 C757,589.83 757,622.85 757,649.48 " fill="none" id="OrderService-to-IOrderService" style="stroke:#A80036;stroke-width:1.0;stroke-dasharray:7.0,7.0;"/><polygon fill="none" points="764,649.55,757,669.55,750,649.55,764,649.55" style="stroke:#A80036;stroke-width:1.0;"/><!--MD5=[4cb3b3c8eaaa2caeceeacdb172d6c371]
link OrderAPIs to IOrderService--><path d="M1538.92,568.02 C1522.42,577.12 1502.36,586.67 1483,592 C1433.6,605.6 1418.92,594.36 1368,600 C1170.18,621.9 938.25,660.89 825.5,680.71 " fill="none" id="OrderAPIs-to-IOrderService" style="stroke:#A80036;stroke-width:1.0;"/><polygon fill="#A80036" points="820.55,681.58,830.1034,683.9741,825.4756,680.7209,828.7288,676.0931,820.55,681.58" style="stroke:#A80036;stroke-width:1.0;"/><text fill="#000000" font-family="sans-serif" font-size="13" lengthAdjust="spacing" textLength="132" x="1369" y="614.4951">1.1 Invoke CreateOrder</text><!--MD5=[57cea6d1857c0de0b3ef8cab362e976e]
link IOrderService to Order Biz Model--><path d="M693.32,697.09 C553.51,702.25 229.19,717.62 192,750 C180,760.45 175.68,777.73 174.39,792.63 " fill="none" id="IOrderService-to-Order Biz Model" style="stroke:#A80036;stroke-width:1.0;"/><polygon fill="#A80036" points="174.05,797.99,178.6315,789.2717,174.3779,793.0008,170.6488,788.7471,174.05,797.99" style="stroke:#A80036;stroke-width:1.0;"/><text fill="#000000" font-family="sans-serif" font-size="13" lengthAdjust="spacing" textLength="106" x="193" y="764.4951">1.2 Init Draft Order</text><!--MD5=[eb4aa15c3af906db2e59e9ee6ef63280]
link IOrderService to IOrderRepo--><path d="M693.27,699.3 C623.62,705.49 518.64,719.68 494,750 C479.1,768.34 497.53,785.04 521.41,797.62 " fill="none" id="IOrderService-to-IOrderRepo" style="stroke:#A80036;stroke-width:1.0;"/><polygon fill="#A80036" points="525.92,799.92,519.7174,792.2696,521.4651,797.6497,516.085,799.3974,525.92,799.92" style="stroke:#A80036;stroke-width:1.0;"/><text fill="#000000" font-family="sans-serif" font-size="13" lengthAdjust="spacing" textLength="130" x="495" y="764.4951">1.3 Persist Draft Order</text><!--MD5=[eb4aa15c3af906db2e59e9ee6ef63280]
link IOrderService to IOrderRepo--><path d="M715.31,718.25 C699.5,727.57 681.56,738.76 666,750 C647.15,763.62 627.32,780.48 611.77,794.35 " fill="none" id="IOrderService-to-IOrderRepo-1" style="stroke:#A80036;stroke-width:1.0;"/><polygon fill="#A80036" points="607.91,797.81,617.282,794.7824,611.6336,794.4731,611.9429,788.8247,607.91,797.81" style="stroke:#A80036;stroke-width:1.0;"/><text fill="#000000" font-family="sans-serif" font-size="13" lengthAdjust="spacing" textLength="134" x="667" y="764.4951">1.13 Fetch Given Order</text><!--MD5=[eb4aa15c3af906db2e59e9ee6ef63280]
link IOrderService to IOrderRepo--><path d="M693.34,698.26 C576.14,704.9 335.9,721.84 311,750 C305.7,755.99 305.91,761.83 311,768 C337.07,799.64 448.96,812.64 520.86,817.8 " fill="none" id="IOrderService-to-IOrderRepo-2" style="stroke:#A80036;stroke-width:1.0;"/><polygon fill="#A80036" points="525.97,818.16,517.2656,813.552,520.9818,817.817,516.7168,821.5331,525.97,818.16" style="stroke:#A80036;stroke-width:1.0;"/><text fill="#000000" font-family="sans-serif" font-size="13" lengthAdjust="spacing" textLength="168" x="312" y="764.4951">1.15 Persist Confirmed Order</text><!--MD5=[8bac3427eab8b99e103522502965572a]
link IOrderService to IOrderEventBusClient--><path d="M777.81,718.27 C793.78,734.67 817.22,755.8 842,768 C892.01,792.63 953.02,805.83 1002.72,812.9 " fill="none" id="IOrderService-to-IOrderEventBusClient" style="stroke:#A80036;stroke-width:1.0;"/><polygon fill="#A80036" points="1007.79,813.61,999.425,808.4112,1002.8374,812.9229,998.3257,816.3353,1007.79,813.61" style="stroke:#A80036;stroke-width:1.0;"/><text fill="#000000" font-family="sans-serif" font-size="13" lengthAdjust="spacing" textLength="209" x="843" y="764.4951">1.4 Publish DraftOrderCreated Event</text><!--MD5=[8bac3427eab8b99e103522502965572a]
link IOrderService to IOrderEventBusClient--><path d="M820.77,700.27 C897.34,707.69 1020.07,723.36 1057,750 C1071.45,760.42 1081.15,777.92 1087.26,792.93 " fill="none" id="IOrderService-to-IOrderEventBusClient-1" style="stroke:#A80036;stroke-width:1.0;"/><polygon fill="#A80036" points="1089.2,797.91,1089.6704,788.0724,1087.3898,793.2492,1082.213,790.9686,1089.2,797.91" style="stroke:#A80036;stroke-width:1.0;"/><text fill="#000000" font-family="sans-serif" font-size="13" lengthAdjust="spacing" textLength="369" x="1075" y="764.4951">1.14 Process Order Status Transitioning from Draft to Confirmed</text><!--MD5=[ed87f8fbfe2b76e4e2c88e23f189e036]
link OrderEvents to IOrderService--><path d="M1691.56,568.13 C1678.04,576.8 1661.81,585.99 1646,592 C1586.84,614.47 1568.65,609.06 1506,618 C1256.6,653.58 958.1,678.1 825.86,688.05 " fill="none" id="OrderEvents-to-IOrderService" style="stroke:#A80036;stroke-width:1.0;"/><polygon fill="#A80036" points="820.84,688.42,830.1123,691.7403,825.8262,688.0485,829.518,683.7624,820.84,688.42" style="stroke:#A80036;stroke-width:1.0;"/><text fill="#000000" font-family="sans-serif" font-size="13" lengthAdjust="spacing" textLength="217" x="1622" y="614.4951">1.12 Invoke SetOrderStatusConfirmed</text><!--MD5=[7e5623b598fb06d319878b0d269fc2e4]
link OrderRepo to IOrderRepo--><path d="M1548.52,718.12 C1524.1,735.25 1488.22,757.38 1453,768 C1443.55,770.85 871.35,804.27 660.18,816.53 " fill="none" id="OrderRepo-to-IOrderRepo" style="stroke:#A80036;stroke-width:1.0;stroke-dasharray:7.0,7.0;"/><polygon fill="none" points="660.4,823.53,640.03,817.7,659.59,809.55,660.4,823.53" style="stroke:#A80036;stroke-width:1.0;"/><!--MD5=[e1a6c8d4c220a8866da93e4443f20708]
link OrderEventBusClient to IOrderEventBusClient--><path d="M1710.48,718.02 C1692.58,726.42 1671.64,735.46 1652,742 C1501.85,792.02 1318.57,810.37 1204.54,817.1 " fill="none" id="OrderEventBusClient-to-IOrderEventBusClient" style="stroke:#A80036;stroke-width:1.0;stroke-dasharray:7.0,7.0;"/><polygon fill="none" points="1204.78,824.1,1184.43,818.21,1204.01,810.12,1204.78,824.1" style="stroke:#A80036;stroke-width:1.0;"/><!--MD5=[09e39d3bdea07b5185101230e2575058]
link CatalogService to ICatalogService--><path d="M2395,568.12 C2395,589.83 2395,622.85 2395,649.48 " fill="none" id="CatalogService-to-ICatalogService" style="stroke:#A80036;stroke-width:1.0;stroke-dasharray:7.0,7.0;"/><polygon fill="none" points="2402,649.55,2395,669.55,2388,649.55,2402,649.55" style="stroke:#A80036;stroke-width:1.0;"/><!--MD5=[8ee704e0df05d11351cd983a41ea76ad]
link CatalogEvents to ICatalogService--><path d="M2063.12,568.04 C2080.69,575.9 2100.62,584.57 2119,592 C2187.65,619.75 2267.16,648.49 2323.16,668.19 " fill="none" id="CatalogEvents-to-ICatalogService" style="stroke:#A80036;stroke-width:1.0;"/><polygon fill="#A80036" points="2328.16,669.94,2320.9958,663.1817,2323.4429,668.2819,2318.3428,670.729,2328.16,669.94" style="stroke:#A80036;stroke-width:1.0;"/><text fill="#000000" font-family="sans-serif" font-size="13" lengthAdjust="spacing" textLength="160" x="2180" y="614.4951">1.6 Invoke ReserveProducts</text><!--MD5=[3490669fe8f4711f9c003d96f770e4fc]
link ICatalogService to ICatalogRepo--><path d="M2464.77,704.2 C2499.72,711.73 2540.9,725.37 2571,750 C2584.59,761.12 2594.21,778.29 2600.49,792.96 " fill="none" id="ICatalogService-to-ICatalogRepo" style="stroke:#A80036;stroke-width:1.0;"/><polygon fill="#A80036" points="2602.49,797.82,2602.762,787.9749,2600.5863,793.1966,2595.3645,791.0209,2602.49,797.82" style="stroke:#A80036;stroke-width:1.0;"/><text fill="#000000" font-family="sans-serif" font-size="13" lengthAdjust="spacing" textLength="165" x="2589" y="764.4951">1.7 Fetch Catalog Biz Model</text><!--MD5=[3490669fe8f4711f9c003d96f770e4fc]
link ICatalogService to ICatalogRepo--><path d="M2385.08,718.1 C2380.04,733.78 2377.04,754.11 2388,768 C2406.95,792 2483.74,806.33 2541.74,813.92 " fill="none" id="ICatalogService-to-ICatalogRepo-1" style="stroke:#A80036;stroke-width:1.0;"/><polygon fill="#A80036" points="2546.94,814.59,2538.5273,809.4688,2541.9813,813.9488,2537.5013,817.4028,2546.94,814.59" style="stroke:#A80036;stroke-width:1.0;"/><text fill="#000000" font-family="sans-serif" font-size="13" lengthAdjust="spacing" textLength="173" x="2389" y="764.4951">1.9 Persist Catalog Biz Model</text><!--MD5=[6ddd22b15992144cc987c4db8ee80b9e]
link ICatalogService to Catalog Biz Model--><path d="M2325.36,702.39 C2265.73,710.32 2186.49,725.25 2167,750 C2156.11,763.83 2165.48,780.4 2178.43,794.05 " fill="none" id="ICatalogService-to-Catalog Biz Model" style="stroke:#A80036;stroke-width:1.0;"/><polygon fill="#A80036" points="2182.17,797.82,2178.6716,788.6134,2178.6488,794.2702,2172.9919,794.2474,2182.17,797.82" style="stroke:#A80036;stroke-width:1.0;"/><text fill="#000000" font-family="sans-serif" font-size="13" lengthAdjust="spacing" textLength="183" x="2168" y="764.4951">1.8 Process product reservation</text><!--MD5=[0cc533f94caac983c185c64f94840218]
link ICatalogService to ICatalogEventBusClient--><path d="M2464.81,699.42 C2539.81,705.54 2661.87,719.53 2763,750 C2800.19,761.21 2839.89,780.01 2869.38,795.45 " fill="none" id="ICatalogService-to-ICatalogEventBusClient" style="stroke:#A80036;stroke-width:1.0;"/><polygon fill="#A80036" points="2874.02,797.89,2867.9156,790.161,2869.5945,795.563,2864.1925,797.2419,2874.02,797.89" style="stroke:#A80036;stroke-width:1.0;"/><text fill="#000000" font-family="sans-serif" font-size="13" lengthAdjust="spacing" textLength="288" x="2812" y="764.4951">1.10 Publish ProductReservationSuccessful Event</text><!--MD5=[3418c16f76ed2b7632d4eaadd8f0f4d0]
link CatalogRepo to ICatalogRepo--><path d="M3196.43,718.32 C3174.07,735.2 3141.42,756.91 3109,768 C2979.71,812.24 2938.85,783.25 2803,798 C2767.16,801.89 2727.63,806.54 2693.72,810.64 " fill="none" id="CatalogRepo-to-ICatalogRepo" style="stroke:#A80036;stroke-width:1.0;stroke-dasharray:7.0,7.0;"/><polygon fill="none" points="2694.12,817.64,2673.42,813.1,2692.43,803.74,2694.12,817.64" style="stroke:#A80036;stroke-width:1.0;"/><!--MD5=[87df5f007243cbe70cddd58132d22f14]
link CatalogEventBusClient to ICatalogEventBusClient--><path d="M3365.78,718.08 C3346.84,726.49 3324.71,735.51 3304,742 C3213.26,770.43 3107.32,791.17 3028.93,804.24 " fill="none" id="CatalogEventBusClient-to-ICatalogEventBusClient" style="stroke:#A80036;stroke-width:1.0;stroke-dasharray:7.0,7.0;"/><polygon fill="none" points="3029.98,811.16,3009.11,807.48,3027.72,797.34,3029.98,811.16" style="stroke:#A80036;stroke-width:1.0;"/><!--MD5=[5b3b1433e68c5a51bd9aacd1c1170898]
link Client to AuthMiddleware--><path d="M1576,199.06 C1576,220.76 1576,253.3 1576,276.59 " fill="none" id="Client-to-AuthMiddleware" style="stroke:#A80036;stroke-width:1.0;"/><polygon fill="#A80036" points="1576,281.7,1580,272.7,1576,276.7,1572,272.7,1576,281.7" style="stroke:#A80036;stroke-width:1.0;"/><!--MD5=[cb3b7c832aa26ca3217664724b0d5eca]
link AuthMiddleware to OrderAPIs--><path d="M1576,330.06 C1576,373.5 1576,467.35 1576,514.6 " fill="none" id="AuthMiddleware-to-OrderAPIs" style="stroke:#A80036;stroke-width:1.0;"/><polygon fill="#A80036" points="1576,519.85,1580,510.85,1576,514.85,1572,510.85,1576,519.85" style="stroke:#A80036;stroke-width:1.0;"/><text fill="#000000" font-family="sans-serif" font-size="13" lengthAdjust="spacing" textLength="141" x="1577" y="376.4951">1: Create Order Request</text><!--MD5=[1f8271d0689ffc2e597d613a937fdde5]
link Producer to Server--><path d="M3691.78,90.22 C3691.63,106.48 3691.43,128.32 3691.27,145.62 " fill="none" id="Producer-to-Server" style="stroke:#A80036;stroke-width:1.0;"/><polygon fill="#A80036" points="3691.22,150.83,3695.297,141.8646,3691.2629,145.8302,3687.2973,141.796,3691.22,150.83" style="stroke:#A80036;stroke-width:1.0;"/><!--MD5=[2ae1d77ce868e217d4da6dc199c4db90]
link Server to Consumer--><path d="M3690.46,199.06 C3689.96,220.76 3689.2,253.3 3688.66,276.59 " fill="none" id="Server-to-Consumer" style="stroke:#A80036;stroke-width:1.0;"/><polygon fill="#A80036" points="3688.54,281.7,3692.7446,272.7938,3688.6543,276.7013,3684.7467,272.6109,3688.54,281.7" style="stroke:#A80036;stroke-width:1.0;"/><!--MD5=[30a633f6f8150daf653bfd13eaa0c548]
link Producer to OrderEventBusClient--><path d="M3734.67,90.08 C3762.62,108.62 3794,137.56 3794,174 C3794,174 3794,174 3794,545 C3794,620 3197.87,613.64 3123,618 C3011.63,624.49 2230.05,615.39 2119,626 C2031.82,634.33 1934.28,652.86 1862.28,668.32 " fill="none" id="Producer-to-OrderEventBusClient" style="stroke:#A80036;stroke-width:1.0;stroke-dasharray:7.0,7.0;"/><polygon fill="none" points="1863.71,675.17,1842.68,672.59,1860.73,661.49,1863.71,675.17" style="stroke:#A80036;stroke-width:1.0;"/><!--MD5=[8852d9b3a5c8c70ca2ddaad2a211c52c]
link Consumer to OrderEvents--><path d="M3651.97,330.12 C3635.32,339.49 3614.87,349.21 3595,354 C3516.04,373.05 2212.93,347.56 2133,362 C2110.17,366.13 2106.73,375.34 2084,380 C2050.65,386.84 1963.01,376.41 1931,388 C1856.06,415.14 1785.51,479.18 1749.3,515.89 " fill="none" id="Consumer-to-OrderEvents" style="stroke:#A80036;stroke-width:1.0;"/><polygon fill="#A80036" points="1745.48,519.79,1754.6362,516.1618,1748.9796,516.2189,1748.9225,510.5624,1745.48,519.79" style="stroke:#A80036;stroke-width:1.0;"/><text fill="#000000" font-family="sans-serif" font-size="13" lengthAdjust="spacing" textLength="296" x="2134" y="376.4951">1.11 Trigger ProductReservationSuccessful Handler</text><!--MD5=[e4f313e55f7d5a619902ad2885938c4a]
link Producer to CatalogEventBusClient--><path d="M3741.11,75.64 C3792.26,87.79 3865,115.38 3865,174 C3865,174 3865,174 3865,545 C3865,583.11 3851.45,596.46 3820,618 C3773.36,649.94 3630.06,671 3526.92,682.45 " fill="none" id="Producer-to-CatalogEventBusClient" style="stroke:#A80036;stroke-width:1.0;stroke-dasharray:7.0,7.0;"/><polygon fill="none" points="3527.5,689.43,3506.87,684.62,3526,675.51,3527.5,689.43" style="stroke:#A80036;stroke-width:1.0;"/><!--MD5=[83b6428c8f457e57e42c8bc8b926fdda]
link Consumer to CatalogEvents--><path d="M3651.48,330.21 C3634.91,339.46 3614.65,349.08 3595,354 C3590.03,355.25 2123.51,385.56 2119,388 C2068.54,415.37 2037.34,478.43 2022.79,515.12 " fill="none" id="Consumer-to-CatalogEvents" style="stroke:#A80036;stroke-width:1.0;"/><polygon fill="#A80036" points="2020.93,519.9,2027.9241,512.9659,2022.745,515.2411,2020.4698,510.0619,2020.93,519.9" style="stroke:#A80036;stroke-width:1.0;"/><text fill="#000000" font-family="sans-serif" font-size="13" lengthAdjust="spacing" textLength="217" x="3239" y="376.4951">1.5 Trigger DraftOrderCreated Handler</text><!--MD5=[673aec3ed2a1c005420279b80f38f4e1]
@startuml ChickenCommerce
package ChickenCommerceHost {

  [AuthMiddleware]

  package Modules {

    package Order {

      package OrderInfra {
        [OrderRepo]
        [OrderEventBusClient]
      }

      package OrderEndpoints {
        [OrderAPIs] #Yellow
        [OrderEvents] #Yellow
      }

      package OrderCore {
        [IOrderService] #Yellow
        [OrderService]
        [IOrderEventBusClient]
        [Order Biz Model]
        [IOrderRepo]
      }

      [OrderService] ..|> [IOrderService]

      [OrderAPIs] - -> [IOrderService] : 1.1 Invoke CreateOrder
      [IOrderService] - -> [Order Biz Model] : 1.2 Init Draft Order

      [IOrderService] - -> [IOrderRepo] : 1.3 Persist Draft Order
      [IOrderService] - -> [IOrderEventBusClient] : 1.4 Publish DraftOrderCreated Event

      [OrderEvents] - -> [IOrderService] : 1.12 Invoke SetOrderStatusConfirmed
      
      [IOrderService] - -> [IOrderRepo] : 1.13 Fetch Given Order
      [IOrderService] - -> [IOrderEventBusClient] : 1.14 Process Order Status Transitioning from Draft to Confirmed  
      [IOrderService] - -> [IOrderRepo] : 1.15 Persist Confirmed Order

      [OrderRepo] ..|> [IOrderRepo]
      [OrderEventBusClient] ..|> [IOrderEventBusClient]
    }

    package Catalog {

      package CatalogInfra {
        [CatalogRepo]
        [CatalogEventBusClient]
      }

      package CatalogEndpoints {
        [CatalogEvents] #Yellow
      }

      package CatalogCore {
        [ICatalogService] #Yellow
        [CatalogService]
        [ICatalogEventBusClient]
        [Catalog Biz Model]
        [ICatalogRepo]
      }

      
      [CatalogService] ..|> [ICatalogService]

      [CatalogEvents] - -> [ICatalogService] : 1.6 Invoke ReserveProducts

      [ICatalogService] - -> [ICatalogRepo] : 1.7 Fetch Catalog Biz Model
      [ICatalogService] - -> [Catalog Biz Model] : 1.8 Process product reservation
      [ICatalogService] - -> [ICatalogRepo] : 1.9 Persist Catalog Biz Model
      [ICatalogService] - -> [ICatalogEventBusClient] : 1.10 Publish ProductReservationSuccessful Event

      [CatalogRepo] ..|> [ICatalogRepo]
      [CatalogEventBusClient] ..|> [ICatalogEventBusClient]
    }

  }
}

[Client]
Client - -> [AuthMiddleware]

[AuthMiddleware] - -> [OrderAPIs] : 1: Create Order Request

package Kafka {
  [Producer]
  [Consumer]
  [Server]

  [Producer] - -> [Server]
  [Server] - -> [Consumer]

  [Producer] ..|> [OrderEventBusClient]
  [Consumer] - -> [OrderEvents] : 1.11 Trigger ProductReservationSuccessful Handler
  
  [Producer] ..|> [CatalogEventBusClient]
  [Consumer] - -> [CatalogEvents] : 1.5 Trigger DraftOrderCreated Handler
}


@enduml

PlantUML version 1.2021.7(Sun May 23 19:40:07 ICT 2021)
(GPL source distribution)
Java Runtime: Java(TM) SE Runtime Environment
JVM: Java HotSpot(TM) 64-Bit Server VM
Default Encoding: Cp1252
Language: en
Country: US
--></g></svg>